<?xml version="1.0" encoding="UTF-8"?>
<!DOCTYPE svg PUBLIC "-//W3C//DTD SVG 1.1//EN"
    "http://www.w3.org/Graphics/SVG/1.1/DTD/svg11.dtd">
<svg xmlns="http://www.w3.org/2000/svg" xmlns:xlink="http://www.w3.org/1999/xlink" version="1.1" width="500.0" height="1500.0" font-size="1" viewBox="0 0 500 1500"><g><g stroke="rgb(0,0,0)" stroke-opacity="1.0" fill="rgb(0,0,0)" fill-opacity="0.0" stroke-width="1.0e-2" stroke-linecap="butt" stroke-linejoin="miter" font-size="1.0em" stroke-miterlimit="10.0"><g transform="matrix(90.25270758122745,0.0,0.0,90.25270758122745,1.8050541516244891,455.99323006186364)"><g><g stroke="rgb(0,128,0)" stroke-opacity="1.0"><path d="M 3.0,9.580000000000002 c 0.0,-9.204745830513224e-2 -0.11192881254230169,-0.18217777221016065 -0.29289321881345254 -0.2612038749637414c -0.18096440627115085,-9.034843510248786e-2 -0.43096440627115085,-0.17813595325643733 -0.7071067811865475 -0.23879612503625858c -0.2761423749153966,-8.009431025426017e-2 -0.5261423749153966,-0.10254882991613301 -0.7071067811865475 -4.691816067802723e-2c -9.048220313557542e-2,3.4094700138337375e-2 -0.16370550783893867,9.625484621102243e-2 -0.21430826175840778 0.18603316382283613c -5.0602753919469334e-2,9.861705061625148e-2 -7.858495705504476e-2,0.22281380939749243 -7.858495705504476e-2 0.36088499685519076c 0.0,0.13807118745769836 2.7982203135575423e-2,0.2622679462389394 7.858495705504476e-2 0.3608849968551909c 5.060275391946911e-2,8.977831761181376e-2 0.12382605862283214,0.1519384636844991 0.21430826175840756 0.18603316382283647c 0.18096440627115062,5.5630669238106e-2 0.4309644062711506,3.317614957623305e-2 0.7071067811865472 -4.6918160678027065e-2c 0.27614237491539706,-6.0660171779821304e-2 0.5261423749153971,-0.14844768993377072 0.7071067811865479 -0.23879612503625852c 0.18096440627115085,-7.902610275358082e-2 0.29289321881345254,-0.1691564166586092 0.29289321881345254 -0.26120387496374137Z" /></g><path d="M 3.0,9.580000000000002 c 0.0,-0.5522847498307935 -0.44771525016920644,-1.0 -0.9999999999999998 -1.0c -0.5522847498307935,-3.3817687554908895e-17 -1.0,0.4477152501692064 -1.0 0.9999999999999997c -6.763537510981779e-17,0.5522847498307935 0.4477152501692063,1.0 0.9999999999999996 1.0c 0.5522847498307935,1.0145306266472669e-16 1.0,-0.44771525016920627 1.0000000000000002 -0.9999999999999997Z" /></g><g><g><g fill-opacity="0.0" stroke-dasharray="0.1,0.1" stroke-dashoffset="0.0"><path d="M 0.0,7.08 l 1.0,1.0000000000000002 " /></g><g fill-opacity="0.0" stroke-dasharray="0.1,0.1" stroke-dashoffset="0.0"><path d="M 0.0,7.08 l 1.0,-1.0 " /></g><g fill-opacity="0.0" stroke-dasharray="0.1,0.1" stroke-dashoffset="0.0"><path d="M 0.0,7.08 l 1.0,-0.3333333333333333 " /></g><g fill-opacity="0.0" stroke-dasharray="0.1,0.1" stroke-dashoffset="0.0"><path d="M 0.0,7.08 l 1.0,0.3333333333333333 " /></g><g fill-opacity="0.0" stroke-dasharray="0.1,0.1" stroke-dashoffset="0.0"><path d="M 0.4999999999999999,8.08 h 0.5000000000000001 " /></g><g fill-opacity="0.0" stroke-dasharray="0.1,0.1" stroke-dashoffset="0.0"><path d="M 0.5,6.08 h 0.5 " /></g><g fill-opacity="0.0" stroke-dasharray="0.1,0.1" stroke-dashoffset="0.0"><path d="M 1.5,6.746666666666667 h -0.5 " /></g><g fill-opacity="0.0" stroke-dasharray="0.1,0.1" stroke-dashoffset="0.0"><path d="M 1.5,7.413333333333333 h -0.5 " /></g><g stroke="rgb(0,128,0)" stroke-opacity="1.0"><path d="M 1.5,7.413333333333333 v -0.6666666666666666 l -3.90625e-3,-8.703220191471073e-4 l -3.90625e-3,-8.748786789332108e-4 l -3.90625e-3,-8.794712179301944e-4 l -3.90625e-3,-8.841000138140598e-4 l -3.90625e-3,-8.887654492431563e-4 l -3.90625e-3,-8.934679119375621e-4 l -3.90625e-3,-8.982077947595202e-4 l -3.90625e-3,-9.02985495795483e-4 l -3.90625e-3,-9.078014184397132e-4 l -3.90625e-3,-9.126559714794924e-4 l -3.90625e-3,-9.175495691818303e-4 l -3.90625e-3,-9.224826313817269e-4 l -3.90625e-3,-9.274555835724341e-4 l -3.90625e-3,-9.324688569971595e-4 l -3.90625e-3,-9.375228887423814e-4 l -3.90625e-3,-9.426181218333829e-4 l -3.90625e-3,-9.47755005331119e-4 l -3.90625e-3,-9.529339944313042e-4 l -3.90625e-3,-9.581555505651651e-4 l -3.90625e-3,-9.63420141502358e-4 l -3.90625e-3,-9.687282414554965e-4 l -3.90625e-3,-9.740803311872881e-4 l -3.90625e-3,-9.794768981191138e-4 l -3.90625e-3,-9.84918436441995e-4 l -3.90625e-3,-9.904054472299473e-4 l -3.90625e-3,-9.959384385552772e-4 l -3.90625e-3,-1.001517925605988e-3 l -3.90625e-3,-1.0071444308060173e-3 l -3.90625e-3,-1.012818483937361e-3 l -3.90625e-3,-1.018540622264641e-3 l -3.90625e-3,-1.0243113906627799e-3 l -3.90625e-3,-1.0301313417460656e-3 l -3.90625e-3,-1.036001036001044e-3 l -3.90625e-3,-1.0419210419210234e-3 l -3.90625e-3,-1.0478919361440742e-3 l -3.90625e-3,-1.0539143035931953e-3 l -3.90625e-3,-1.0599887376196437e-3 l -3.90625e-3,-1.066115840149262e-3 l -3.90625e-3,-1.0722962218313037e-3 l -3.90625e-3,-1.0785305021907554e-3 l -3.90625e-3,-1.0848193097837133e-3 l -3.90625e-3,-1.091163282355534e-3 l -3.90625e-3,-1.0975630670028158e-3 l -3.90625e-3,-1.104019320338101e-3 l -3.90625e-3,-1.1105327086586847e-3 l -3.90625e-3,-1.1171039081182e-3 l -3.90625e-3,-1.1237336049023106e-3 l -3.90625e-3,-1.1304224954076236e-3 l -3.90625e-3,-1.1371712864250427e-3 l -3.90625e-3,-1.1439806953257858e-3 l -3.90625e-3,-1.1508514502526213e-3 l -3.90625e-3,-1.1577842903144342e-3 l -3.90625e-3,-1.164779965784568e-3 l -3.90625e-3,-1.171839238304495e-3 l -3.90625e-3,-1.1789628810905395e-3 l -3.90625e-3,-1.1861516791459858e-3 l -3.90625e-3,-1.1934064294771285e-3 l -3.90625e-3,-1.2007279413144278e-3 l -3.90625e-3,-1.2081170363378857e-3 l -3.90625e-3,-1.2155745489078607e-3 l -3.90625e-3,-1.2231013263005464e-3 l -3.90625e-3,-1.2306982289482793e-3 l -3.90625e-3,-1.2383661306863414e-3 l -3.90625e-3,-1.2461059190031487e-3 l -3.90625e-3,-1.2539184952977678e-3 l -3.90625e-3,-1.2618047751424832e-3 l -3.90625e-3,-1.2697656885502506e-3 l -1.953125e-3,-6.378917677077323e-4 l -1.953125e-3,-6.399104125422439e-4 l -1.953125e-3,-6.419386547373285e-4 l -1.953125e-3,-6.439765552285204e-4 l -1.953125e-3,-6.460241754359664e-4 l -1.953125e-3,-6.480815772685333e-4 l -1.953125e-3,-6.501488231290264e-4 l -1.953125e-3,-6.522259759185745e-4 l -1.953125e-3,-6.543130990415702e-4 l -1.953125e-3,-6.564102564102225e-4 l -1.953125e-3,-6.585175124501075e-4 l -1.953125e-3,-6.606349321042759e-4 l -1.953125e-3,-6.627625808389159e-4 l -1.953125e-3,-6.64900524648071e-4 l -1.953125e-3,-6.670488300589139e-4 l -1.953125e-3,-6.692075641367423e-4 l -1.953125e-3,-6.713767944904747e-4 l -1.953125e-3,-6.735565892778683e-4 l -1.953125e-3,-6.757470172104041e-4 l -1.953125e-3,-6.779481475596705e-4 l -1.953125e-3,-6.801600501618044e-4 l -1.953125e-3,-6.823827954237638e-4 l -1.953125e-3,-6.846164543286015e-4 l -1.953125e-3,-6.868610984411272e-4 l -1.953125e-3,-6.89116799913847e-4 l -1.953125e-3,-6.913836314925148e-4 l -1.953125e-3,-6.936616665221829e-4 l -1.953125e-3,-6.959509789529195e-4 l -1.953125e-3,-6.982516433461372e-4 l -1.953125e-3,-7.005637348804217e-4 l -1.953125e-3,-7.028873293576376e-4 l -1.953125e-3,-7.052225032093129e-4 l -1.953125e-3,-7.075693335028554e-4 l -1.953125e-3,-7.099278979478818e-4 l -1.953125e-3,-7.122982749026008e-4 l -1.953125e-3,-7.146805433805303e-4 l -1.953125e-3,-7.170747830568813e-4 l -1.953125e-3,-7.194810742751634e-4 l -1.953125e-3,-7.218994980542903e-4 l -1.953125e-3,-7.243301360947973e-4 l -1.953125e-3,-7.267730707865572e-4 l -1.953125e-3,-7.292283852149417e-4 l -1.953125e-3,-7.316961631682051e-4 l -1.953125e-3,-7.341764891450886e-4 l -1.953125e-3,-7.366694483612046e-4 l -1.953125e-3,-7.391751267569746e-4 l -1.953125e-3,-7.416936110049011e-4 l -1.953125e-3,-7.442249885168395e-4 l -1.953125e-3,-7.467693474519366e-4 l -1.953125e-3,-7.49326776724013e-4 l -1.953125e-3,-7.518973660095574e-4 l -1.953125e-3,-7.544812057552752e-4 l -1.953125e-3,-7.570783871864717e-4 l -1.953125e-3,-7.596890023146563e-4 l -1.953125e-3,-7.623131439461472e-4 l -1.953125e-3,-7.649509056899539e-4 l -1.953125e-3,-7.676023819661038e-4 l -1.953125e-3,-7.702676680146348e-4 l -1.953125e-3,-7.729468599034228e-4 l -1.953125e-3,-7.756400545371744e-4 l -1.953125e-3,-7.78347349666475e-4 l -1.953125e-3,-7.8106884389606e-4 l -1.953125e-3,-7.838046366943074e-4 l -1.953125e-3,-7.865548284020085e-4 l -1.953125e-3,-7.893195202416936e-4 l -1.953125e-3,-7.920988143271246e-4 l -1.953125e-3,-7.948928136721212e-4 l -1.953125e-3,-7.977016222010525e-4 l -1.953125e-3,-8.005253447574967e-4 l -1.953125e-3,-8.033640871147885e-4 l -1.953125e-3,-8.062179559855664e-4 l -1.953125e-3,-8.090870590317101e-4 l -1.953125e-3,-8.119715048749976e-4 l -1.953125e-3,-8.148714031067095e-4 l -1.953125e-3,-8.177868642985087e-4 l -1.953125e-3,-8.207180000128211e-4 l -1.953125e-3,-8.23664922813605e-4 l -1.953125e-3,-8.266277462769533e-4 l -1.953125e-3,-8.296065850022516e-4 l -1.953125e-3,-8.326015546232246e-4 l -1.953125e-3,-8.356127718189277e-4 l -1.953125e-3,-8.386403543255705e-4 l -1.953125e-3,-8.416844209473973e-4 l -1.953125e-3,-8.447450915690657e-4 l -1.953125e-3,-8.478224871667495e-4 l -1.953125e-3,-8.509167298206277e-4 l -1.953125e-3,-8.54027942726765e-4 l -1.953125e-3,-8.571562502092678e-4 l -1.953125e-3,-8.603017777329969e-4 l -1.953125e-3,-8.634646519157796e-4 l -1.953125e-3,-8.66645000541677e-4 l -1.953125e-3,-8.69842952573141e-4 l -1.953125e-3,-8.730586381649474e-4 l -1.953125e-3,-8.762921886766861e-4 l -1.953125e-3,-8.795437366865833e-4 l -1.953125e-3,-8.828134160051015e-4 l -1.953125e-3,-8.86101361688596e-4 l -1.953125e-3,-8.894077100530806e-4 l -1.953125e-3,-8.927325986888279e-4 l -1.953125e-3,-8.960761664741357e-4 l -1.953125e-3,-8.994385535903704e-4 l -1.953125e-3,-9.028199015361782e-4 l -1.953125e-3,-9.062203531427504e-4 l -1.953125e-3,-9.096400525885895e-4 l -1.953125e-3,-9.130791454149967e-4 l -1.953125e-3,-9.165377785415596e-4 l -1.953125e-3,-9.200161002817508e-4 l -1.953125e-3,-9.235142603588598e-4 l -1.953125e-3,-9.270324099221461e-4 l -1.953125e-3,-9.305707015630493e-4 l -1.953125e-3,-9.34129289331953e-4 l -1.953125e-3,-9.377083287546717e-4 l -1.953125e-3,-9.413079768497146e-4 l -1.953125e-3,-9.449283921453278e-4 l -1.953125e-3,-9.485697346968691e-4 l -1.953125e-3,-9.522321661050159e-4 l -1.953125e-3,-9.559158495328623e-4 l -1.953125e-3,-9.596209497248487e-4 l -1.953125e-3,-9.63347633024747e-4 l -1.953125e-3,-9.67096067394535e-4 l -1.953125e-3,-9.708664224330477e-4 l -1.953125e-3,-9.746588693957392e-4 l -1.953125e-3,-9.784735812132794e-4 l -1.953125e-3,-9.823107325122038e-4 l -1.953125e-3,-9.861704996340093e-4 l -1.953125e-3,-9.900530606562485e-4 l -1.953125e-3,-9.93958595412292e-4 l -1.953125e-3,-9.978872855126442e-4 l -1.953125e-3,-1.0018393143662596e-3 l -1.953125e-3,-1.0058148672009715e-3 l -1.953125e-3,-1.0098141310864728e-3 l -1.953125e-3,-1.0138372949554109e-3 l -1.953125e-3,-1.0178845496258138e-3 l -1.953125e-3,-1.021956087824405e-3 l -1.953125e-3,-1.0260521042083637e-3 l -1.953125e-3,-1.030172795389972e-3 l -1.953125e-3,-1.034318359959041e-3 l -1.953125e-3,-1.0384889985071144e-3 l -1.953125e-3,-1.0426849136526695e-3 l -1.953125e-3,-1.0469063100642106e-3 l -1.953125e-3,-1.0511533944863594e-3 l -1.953125e-3,-1.0554263757648341e-3 l -1.953125e-3,-1.0597254648716525e-3 l -1.953125e-3,-1.064050874932554e-3 l -1.953125e-3,-1.068402821251202e-3 l -1.953125e-3,-1.072781521338273e-3 l -1.953125e-3,-1.0771871949372125e-3 l -1.953125e-3,-1.0816200640522133e-3 l -1.953125e-3,-1.086080352976082e-3 l -1.953125e-3,-1.0905682883189938e-3 l -1.953125e-3,-1.0950840990366917e-3 l -1.953125e-3,-1.0996280164600192e-3 l -1.953125e-3,-1.1042002743247847e-3 l -1.953125e-3,-1.1088011088010719e-3 l -1.953125e-3,-1.1134307585246583e-3 l -1.953125e-3,-1.1180894646273254e-3 l -1.953125e-3,-1.122777470768388e-3 l -1.953125e-3,-1.1274950231664471e-3 l -1.953125e-3,-1.1322423706324747e-3 l -1.953125e-3,-1.1370197646013436e-3 l -1.953125e-3,-1.1418274591663558e-3 l -1.953125e-3,-1.1466657111118828e-3 l -1.953125e-3,-1.1515347799488929e-3 l -1.953125e-3,-1.1564349279487018e-3 l -1.953125e-3,-1.1613664201787222e-3 l -1.953125e-3,-1.1663295245385452e-3 l -1.953125e-3,-1.1713245117955795e-3 l -1.953125e-3,-1.1763516556230202e-3 l -1.953125e-3,-1.1814112326364867e-3 l -1.953125e-3,-1.186503522432325e-3 l -1.953125e-3,-1.1916288076264658e-3 l -1.953125e-3,-1.1967873738931711e-3 l -1.953125e-3,-1.2019795100055575e-3 l -1.953125e-3,-1.2072055078751198e-3 l -1.953125e-3,-1.212465662593587e-3 l -1.953125e-3,-1.217760272473778e-3 l -1.953125e-3,-1.2230896390930113e-3 l -1.953125e-3,-1.2284540673346278e-3 l -1.953125e-3,-1.2338538654328435e-3 l -1.953125e-3,-1.23928934501627e-3 l -1.953125e-3,-1.2447608211531014e-3 l -1.953125e-3,-1.2502686123971873e-3 l -1.953125e-3,-1.2558130408335533e-3 l -1.953125e-3,-1.2613944321261394e-3 l -1.953125e-3,-1.2670131155654296e-3 l -1.953125e-3,-1.2726694241170788e-3 l -1.953125e-3,-1.2783636944710963e-3 l -1.953125e-3,-1.2840962670920275e-3 l -1.953125e-3,-1.2898674862700243e-3 l -1.953125e-3,-1.2956777001720265e-3 l -1.953125e-3,-1.3015272608951634e-3 l -1.953125e-3,-1.307416524519267e-3 l -1.953125e-3,-1.3133458511609408e-3 l -1.953125e-3,-1.3193156050298471e-3 l -1.953125e-3,-1.3253261544833306e-3 l -1.953125e-3,-1.3313778720837055e-3 l -1.953125e-3,-1.3374711346562096e-3 l -1.953125e-3,-1.3436063233472906e-3 l -1.953125e-3,-1.3497838236844473e-3 l -1.953125e-3,-1.3560040256369588e-3 l -1.953125e-3,-1.3622673236768357e-3 l -1.953125e-3,-1.3685741168419918e-3 l -1.953125e-3,-1.374924808799527e-3 l -1.953125e-3,-1.3813198079102307e-3 l -1.953125e-3,-1.3877595272944188e-3 l -1.953125e-3,-1.3942443848985464e-3 l -1.953125e-3,-1.400774803563265e-3 l -1.953125e-3,-1.4073512110917008e-3 l -1.953125e-3,-1.4139740403202872e-3 l -1.953125e-3,-1.4206437291898188e-3 l -1.953125e-3,-1.4273607208171724e-3 l -1.953125e-3,-1.434125463569913e-3 l -1.953125e-3,-1.4409384111402357e-3 l -1.953125e-3,-1.4478000226219034e-3 l -1.953125e-3,-1.4547107625866307e-3 l -1.953125e-3,-1.4616711011635752e-3 l -1.953125e-3,-1.4686815141188303e-3 l -1.953125e-3,-1.4757424829368038e-3 l -1.953125e-3,-1.4828544949027078e-3 l -1.953125e-3,-1.490018043187158e-3 l -1.953125e-3,-1.497233626931549e-3 l -1.953125e-3,-1.5045017513339864e-3 l -1.953125e-3,-1.5118229277396589e-3 l -1.953125e-3,-1.519197673728545e-3 l -1.953125e-3,-1.5266265132088952e-3 l -1.953125e-3,-1.534109976508935e-3 l -1.953125e-3,-1.541648600472123e-3 l -1.953125e-3,-1.549242928553296e-3 l -1.953125e-3,-1.5568935109164794e-3 l -1.953125e-3,-1.5646009045349185e-3 l -1.953125e-3,-1.5723656732918867e-3 l -1.953125e-3,-1.5801883880843803e-3 l -1.953125e-3,-1.5880696269277017e-3 l -1.953125e-3,-1.5960099750623735e-3 l -9.765625e-4,-8.010012515644593e-4 l -9.765625e-4,-8.030087734981484e-4 l -9.765625e-4,-8.050238519762276e-4 l -9.765625e-4,-8.070465249712111e-4 l -9.765625e-4,-8.090768306943108e-4 l -9.765625e-4,-8.111148075978791e-4 l -9.765625e-4,-8.131604943761861e-4 l -9.765625e-4,-8.152139299680838e-4 l -9.765625e-4,-8.172751535583389e-4 l -9.765625e-4,-8.193442045799637e-4 l -9.765625e-4,-8.214211227157708e-4 l -9.765625e-4,-8.235059479003715e-4 l -9.765625e-4,-8.255987203220627e-4 l -9.765625e-4,-8.276994804246041e-4 l -9.765625e-4,-8.298082689096598e-4 l -9.765625e-4,-8.319251267385752e-4 l -9.765625e-4,-8.340500951339314e-4 l -9.765625e-4,-8.36183215581765e-4 l -9.765625e-4,-8.383245298341224e-4 l -9.765625e-4,-8.404740799107246e-4 l -9.765625e-4,-8.426319081004108e-4 l -9.765625e-4,-8.447980569644686e-4 l -9.765625e-4,-8.46972569337634e-4 l -9.765625e-4,-8.49155488330755e-4 l -9.765625e-4,-8.513468573329019e-4 l -9.765625e-4,-8.535467200133651e-4 l -9.765625e-4,-8.557551203238756e-4 l -9.765625e-4,-8.579721025008258e-4 l -9.765625e-4,-8.601977110676007e-4 l -9.765625e-4,-8.624319908366873e-4 l -9.765625e-4,-8.646749869116732e-4 l -9.765625e-4,-8.66926744690022e-4 l -9.765625e-4,-8.691873098652936e-4 l -9.765625e-4,-8.71456728428921e-4 l -9.765625e-4,-8.737350466730964e-4 l -9.765625e-4,-8.760223111933252e-4 l -9.765625e-4,-8.783185688896467e-4 l -9.765625e-4,-8.806238669707422e-4 l -9.765625e-4,-8.829382529549346e-4 l -9.765625e-4,-8.85261774673185e-4 l -9.765625e-4,-8.875944802718694e-4 l -9.765625e-4,-8.899364182144431e-4 l -9.765625e-4,-8.922876372851052e-4 l -9.765625e-4,-8.946481865900191e-4 l -9.765625e-4,-8.970181155611989e-4 l -9.765625e-4,-8.993974739578414e-4 l -9.765625e-4,-9.017863118701008e-4 l -9.765625e-4,-9.041846797208652e-4 l -9.765625e-4,-9.065926282687542e-4 l -9.765625e-4,-9.090102086106722e-4 l -9.765625e-4,-9.114374721851393e-4 l -9.765625e-4,-9.138744707738455e-4 l -9.765625e-4,-9.163212565055368e-4 l -9.765625e-4,-9.187778818581238e-4 l -9.765625e-4,-9.212443996616804e-4 l -9.765625e-4,-9.237208631017735e-4 l -9.765625e-4,-9.262073257210179e-4 l -9.765625e-4,-9.287038414238502e-4 l -9.765625e-4,-9.312104644775276e-4 l -9.765625e-4,-9.337272495167914e-4 l -9.765625e-4,-9.362542515451988e-4 l -9.765625e-4,-9.38791525939564e-4 l -9.765625e-4,-9.413391284522898e-4 l -9.765625e-4,-9.438971152144759e-4 l -9.765625e-4,-9.464655427388058e-4 l -9.765625e-4,-9.490444679234322e-4 l -9.765625e-4,-9.51633948054198e-4 l -9.765625e-4,-9.542340408084105e-4 l -9.765625e-4,-9.568448042579503e-4 l -9.765625e-4,-9.594662968723799e-4 l -9.765625e-4,-9.620985775221635e-4 l -9.765625e-4,-9.647417054825524e-4 l -9.765625e-4,-9.673957404355837e-4 l -9.765625e-4,-9.700607424754093e-4 l -9.765625e-4,-9.727367721097391e-4 l -9.765625e-4,-9.754238902648371e-4 l -9.765625e-4,-9.78122158287742e-4 l -9.765625e-4,-9.808316379504856e-4 l -9.765625e-4,-9.83552391453868e-4 l -9.765625e-4,-9.86284481430122e-4 l -9.765625e-4,-9.890279709472427e-4 l -9.765625e-4,-9.917829235126518e-4 l -9.765625e-4,-9.945494030760837e-4 l -9.765625e-4,-9.973274740344706e-4 l -9.765625e-4,-1.000117201234496e-3 l -9.765625e-4,-1.00291864997748e-3 l -9.765625e-4,-1.0057318860222653e-3 l -9.765625e-4,-1.0085569755897694e-3 l -9.765625e-4,-1.0113939853664267e-3 l -9.765625e-4,-1.0142429825082955e-3 l -9.765625e-4,-1.0171040346450555e-3 l -9.765625e-4,-1.0199772098842264e-3 l -9.765625e-4,-1.0228625768146093e-3 l -9.765625e-4,-1.0257602045109504e-3 l -9.765625e-4,-1.0286701625379369e-3 l -9.765625e-4,-1.0315925209541943e-3 l -9.765625e-4,-1.0345273503168384e-3 l -9.765625e-4,-1.0374747216852498e-3 l -9.765625e-4,-1.040434706625848e-3 l -9.765625e-4,-1.043407377216199e-3 l -9.765625e-4,-1.0463928060494565e-3 l -9.765625e-4,-1.0493910662386918e-3 l -9.765625e-4,-1.0524022314216674e-3 l -9.765625e-4,-1.055426375764723e-3 l -9.765625e-4,-1.0584635739684378e-3 l -9.765625e-4,-1.0615139012708497e-3 l -9.765625e-4,-1.0645774334535618e-3 l -9.765625e-4,-1.0676542468449624e-3 l -9.765625e-4,-1.0707444183264414e-3 l -9.765625e-4,-1.073848025336166e-3 l -9.765625e-4,-1.0769651458740759e-3 l -9.765625e-4,-1.080095858507435e-3 l -9.765625e-4,-1.0832402423750498e-3 l -9.765625e-4,-1.0863983771923769e-3 l -9.765625e-4,-1.0895703432571846e-3 l -9.765625e-4,-1.0927562214538833e-3 l -9.765625e-4,-1.0959560932590762e-3 l -9.765625e-4,-1.0991700407465554e-3 l -9.765625e-4,-1.1023981465930754e-3 l -9.765625e-4,-1.1056404940831266e-3 l -9.765625e-4,-1.1088971671142644e-3 l -9.765625e-4,-1.112168250203105e-3 l -9.765625e-4,-1.1154538284903204e-3 l -9.765625e-4,-1.1187539877460795e-3 l -9.765625e-4,-1.1220688143764868e-3 l -9.765625e-4,-1.1253983954281344e-3 l -9.765625e-4,-1.1287428185942083e-3 l -9.765625e-4,-1.132102172221039e-3 l -9.765625e-4,-1.1354765453126525e-3 l -9.765625e-4,-1.138866027537433e-3 l -9.765625e-4,-1.1422707092341167e-3 l -9.765625e-4,-1.145690681417455e-3 l -9.765625e-4,-1.1491260357844313e-3 l -9.765625e-4,-1.1525768647208112e-3 l -9.765625e-4,-1.156043261306472e-3 l -9.765625e-4,-1.1595253193223964e-3 l -9.765625e-4,-1.1630231332570018e-3 l -9.765625e-4,-1.1665367983121344e-3 l -9.765625e-4,-1.1700664104099534e-3 l -9.765625e-4,-1.1736120661990368e-3 l -9.765625e-4,-1.177173863061598e-3 l -9.765625e-4,-1.180751899119481e-3 l -9.765625e-4,-1.1843462732415988e-3 l -9.765625e-4,-1.187957085050373e-3 l -9.765625e-4,-1.1915844349282834e-3 l -9.765625e-4,-1.1952284240259736e-3 l -9.765625e-4,-1.1988891542680236e-3 l -9.765625e-4,-1.2025667283608321e-3 l -9.765625e-4,-1.2062612497997227e-3 l -9.765625e-4,-1.2099728228760487e-3 l -9.765625e-4,-1.2137015526846318e-3 l -9.765625e-4,-1.2174475451310895e-3 l -9.765625e-4,-1.2212109069399402e-3 l -9.765625e-4,-1.2249917456611525e-3 l -9.765625e-4,-1.2287901696785841e-3 l -9.765625e-4,-1.2326062882179745e-3 l -9.765625e-4,-1.2364402113540507e-3 l -9.765625e-4,-1.240292050018632e-3 l -9.765625e-4,-1.2441619160094008e-3 l -9.765625e-4,-1.2480499219968966e-3 l -9.765625e-4,-1.25195618153362e-3 l -9.765625e-4,-1.2558808090619156e-3 l -9.765625e-4,-1.2598239199225203e-3 l -9.765625e-4,-1.2637856303624462e-3 l -9.765625e-4,-1.2677660575446392e-3 l -9.765625e-4,-1.271765319555862e-3 l -9.765625e-4,-1.2757835354154645e-3 l -9.765625e-4,-1.2798208250844878e-3 l -9.765625e-4,-1.283877309474657e-3 l -9.765625e-4,-1.2879531104570408e-3 l -9.765625e-4,-1.2920483508719327e-3 l -9.765625e-4,-1.2961631545370667e-3 l -9.765625e-4,-1.3002976462580529e-3 l -9.765625e-4,-1.304451951837149e-3 l -9.765625e-4,-1.3086261980831404e-3 l -9.765625e-4,-1.312820512820445e-3 l -9.765625e-4,-1.317035024900215e-3 l -9.765625e-4,-1.3212698642085519e-3 l -9.765625e-4,-1.3255251616778319e-3 l -9.765625e-4,-1.329801049296142e-3 l -9.765625e-4,-1.3340976601178278e-3 l -9.765625e-4,-1.3384151282734846e-3 l -9.765625e-4,-1.3427535889809494e-3 l -9.765625e-4,-1.3471131785557366e-3 l -9.765625e-4,-1.3514940344208082e-3 l -9.765625e-4,-1.355896295119341e-3 l -9.765625e-4,-1.3603201003236087e-3 l -9.765625e-4,-1.3647655908475276e-3 l -9.765625e-4,-1.369232908657203e-3 l -9.765625e-4,-1.3737221968822544e-3 l -9.765625e-4,-1.378233599827694e-3 l -9.765625e-4,-1.3827672629850296e-3 l -9.765625e-4,-1.3873233330443657e-3 l -9.765625e-4,-1.391901957905839e-3 l -9.765625e-4,-1.3965032866922744e-3 l -9.765625e-4,-1.4011274697608433e-3 l -9.765625e-4,-1.4057746587152753e-3 l -9.765625e-4,-1.4104450064186258e-3 l -9.765625e-4,-1.415138667005711e-3 l -9.765625e-4,-1.4198557958957636e-3 l -9.765625e-4,-1.4245965498052016e-3 l -9.765625e-4,-1.4293610867610607e-3 l -9.765625e-4,-1.4341495661137627e-3 l -9.765625e-4,-1.4389621485503268e-3 l -9.765625e-4,-1.4437989961085806e-3 l -9.765625e-4,-1.4486602721895947e-3 l -9.765625e-4,-1.4535461415731143e-3 l -9.765625e-4,-1.4584567704298834e-3 l -9.765625e-4,-1.4633923263364101e-3 l -9.765625e-4,-1.4683529782901772e-3 l -9.765625e-4,-1.4733388967224093e-3 l -9.765625e-4,-1.4783502535139492e-3 l -9.765625e-4,-1.4833872220098021e-3 l -9.765625e-4,-1.488449977033679e-3 l -9.765625e-4,-1.4935386949038731e-3 l -9.765625e-4,-1.498653553448026e-3 l -9.765625e-4,-1.5037947320191147e-3 l -9.765625e-4,-1.5089624115105504e-3 l -9.765625e-4,-1.5141567743729434e-3 l -9.765625e-4,-1.5193780046293126e-3 l -9.765625e-4,-1.5246262878922945e-3 l -9.765625e-4,-1.5299018113799079e-3 l -9.765625e-4,-1.5352047639322075e-3 l -9.765625e-4,-1.5405353360292695e-3 l -9.765625e-4,-1.5458937198068456e-3 l -9.765625e-4,-1.5512801090743489e-3 l -9.765625e-4,-1.55669469933295e-3 l -9.765625e-4,-1.56213768779212e-3 l -9.765625e-4,-1.5676092733886149e-3 l -9.765625e-4,-1.573109656804017e-3 l -9.765625e-4,-1.5786390404833872e-3 l -9.765625e-4,-1.5841976286542492e-3 l -9.765625e-4,-1.5897856273442423e-3 l -9.765625e-4,-1.595403244402105e-3 l -9.765625e-4,-1.6010506895149934e-3 l -9.765625e-4,-1.606728174229577e-3 l -9.765625e-4,-1.612435911971133e-3 l -9.765625e-4,-1.6181741180634202e-3 l -9.765625e-4,-1.6239430097499952e-3 l -9.765625e-4,-1.629742806213419e-3 l -9.765625e-4,-1.6355737285970173e-3 l -9.765625e-4,-1.6414360000256423e-3 l -9.765625e-4,-1.64732984562721e-3 l -9.765625e-4,-1.6532554925539067e-3 l -9.765625e-4,-1.6592131700045032e-3 l -9.765625e-4,-1.6652031092464492e-3 l -9.765625e-4,-1.6712255436378554e-3 l -9.765625e-4,-1.677280708651141e-3 l -9.765625e-4,-1.6833688418947945e-3 l -9.765625e-4,-1.6894901831381315e-3 l -9.765625e-4,-1.695644974333499e-3 l -9.765625e-4,-1.7018334596412554e-3 l -9.765625e-4,-1.70805588545353e-3 l -9.765625e-4,-1.7143125004185356e-3 l -9.765625e-4,-1.7206035554659938e-3 l -9.765625e-4,-1.7269293038315592e-3 l -9.765625e-4,-1.733290001083354e-3 l -9.765625e-4,-1.739685905146282e-3 l -9.765625e-4,-1.7461172763298949e-3 l -9.765625e-4,-1.7525843773533722e-3 l -9.765625e-4,-1.7590874733731665e-3 l -9.765625e-4,-1.765626832010203e-3 l -9.765625e-4,-1.772202723377192e-3 l -9.765625e-4,-1.7788154201061612e-3 l -9.765625e-4,-1.7854651973776559e-3 l -9.765625e-4,-1.7921523329482714e-3 l -9.765625e-4,-1.7988771071807408e-3 l -9.765625e-4,-1.8056398030723564e-3 l -9.765625e-4,-1.8124407062855008e-3 l -9.765625e-4,-1.819280105177179e-3 l -9.765625e-4,-1.8261582908299934e-3 l -9.765625e-4,-1.8330755570831192e-3 l -9.765625e-4,-1.8400322005635017e-3 l -9.765625e-4,-1.8470285207177195e-3 l -9.765625e-4,-1.8540648198442922e-3 l -9.765625e-4,-1.8611414031260987e-3 l -9.765625e-4,-1.868258578663906e-3 l -9.765625e-4,-1.8754166575093434e-3 l -9.765625e-4,-1.8826159536994291e-3 l -9.765625e-4,-1.8898567842906555e-3 l -9.765625e-4,-1.8971394693937382e-3 l -9.765625e-4,-1.9044643322100319e-3 l -9.765625e-4,-1.9118316990657247e-3 l -9.765625e-4,-1.9192418994496974e-3 l -9.765625e-4,-1.926695266049494e-3 l -9.765625e-4,-1.93419213478907e-3 l -9.765625e-4,-1.9417328448660953e-3 l -9.765625e-4,-1.9493177387914784e-3 l -1.1102230246251565e-16,2.0 l 9.765625e-4,-1.9493177387914784e-3 l 9.765625e-4,-1.9417328448660953e-3 l 9.765625e-4,-1.93419213478907e-3 l 9.765625e-4,-1.926695266049494e-3 l 9.765625e-4,-1.9192418994496974e-3 l 9.765625e-4,-1.9118316990657247e-3 l 9.765625e-4,-1.9044643322100319e-3 l 9.765625e-4,-1.8971394693938493e-3 l 9.765625e-4,-1.8898567842905445e-3 l 9.765625e-4,-1.8826159536994291e-3 l 9.765625e-4,-1.8754166575093434e-3 l 9.765625e-4,-1.868258578663906e-3 l 9.765625e-4,-1.8611414031260987e-3 l 9.765625e-4,-1.8540648198442922e-3 l 9.765625e-4,-1.8470285207177195e-3 l 9.765625e-4,-1.8400322005635017e-3 l 9.765625e-4,-1.8330755570831192e-3 l 9.765625e-4,-1.8261582908299934e-3 l 9.765625e-4,-1.819280105177179e-3 l 9.765625e-4,-1.8124407062855008e-3 l 9.765625e-4,-1.8056398030723564e-3 l 9.765625e-4,-1.7988771071807408e-3 l 9.765625e-4,-1.7921523329483824e-3 l 9.765625e-4,-1.7854651973775448e-3 l 9.765625e-4,-1.7788154201061612e-3 l 9.765625e-4,-1.772202723377192e-3 l 9.765625e-4,-1.765626832010203e-3 l 9.765625e-4,-1.7590874733732775e-3 l 9.765625e-4,-1.7525843773532612e-3 l 9.765625e-4,-1.7461172763298949e-3 l 9.765625e-4,-1.739685905146393e-3 l 9.765625e-4,-1.733290001083243e-3 l 9.765625e-4,-1.7269293038316702e-3 l 9.765625e-4,-1.7206035554658827e-3 l 9.765625e-4,-1.7143125004185356e-3 l 9.765625e-4,-1.70805588545353e-3 l 9.765625e-4,-1.7018334596412554e-3 l 9.765625e-4,-1.695644974333499e-3 l 9.765625e-4,-1.6894901831381315e-3 l 9.765625e-4,-1.6833688418947945e-3 l 9.765625e-4,-1.677280708651141e-3 l 9.765625e-4,-1.6712255436379664e-3 l 9.765625e-4,-1.6652031092463382e-3 l 9.765625e-4,-1.6592131700046142e-3 l 9.765625e-4,-1.6532554925539067e-3 l 9.765625e-4,-1.647329845627099e-3 l 9.765625e-4,-1.6414360000256423e-3 l 9.765625e-4,-1.6355737285970173e-3 l 9.765625e-4,-1.629742806213419e-3 l 9.765625e-4,-1.6239430097499952e-3 l 9.765625e-4,-1.6181741180635312e-3 l 9.765625e-4,-1.6124359119710219e-3 l 9.765625e-4,-1.606728174229577e-3 l 9.765625e-4,-1.6010506895149934e-3 l 9.765625e-4,-1.595403244402105e-3 l 9.765625e-4,-1.5897856273443534e-3 l 9.765625e-4,-1.5841976286541382e-3 l 9.765625e-4,-1.5786390404834982e-3 l 9.765625e-4,-1.573109656803906e-3 l 9.765625e-4,-1.5676092733886149e-3 l 9.765625e-4,-1.562137687792231e-3 l 9.765625e-4,-1.556694699332839e-3 l 9.765625e-4,-1.55128010907446e-3 l 9.765625e-4,-1.5458937198067346e-3 l 9.765625e-4,-1.5405353360292695e-3 l 9.765625e-4,-1.5352047639323185e-3 l 9.765625e-4,-1.5299018113797969e-3 l 9.765625e-4,-1.5246262878922945e-3 l 9.765625e-4,-1.5193780046294236e-3 l 9.765625e-4,-1.5141567743728324e-3 l 9.765625e-4,-1.5089624115105504e-3 l 9.765625e-4,-1.5037947320191147e-3 l 9.765625e-4,-1.498653553448026e-3 l 9.765625e-4,-1.4935386949039842e-3 l 9.765625e-4,-1.488449977033679e-3 l 9.765625e-4,-1.483387222009691e-3 l 9.765625e-4,-1.4783502535139492e-3 l 9.765625e-4,-1.4733388967224093e-3 l 9.765625e-4,-1.4683529782901772e-3 l 9.765625e-4,-1.4633923263365212e-3 l 9.765625e-4,-1.4584567704297724e-3 l 9.765625e-4,-1.4535461415731143e-3 l 9.765625e-4,-1.4486602721897057e-3 l 9.765625e-4,-1.4437989961084696e-3 l 9.765625e-4,-1.4389621485504378e-3 l 9.765625e-4,-1.4341495661136516e-3 l 9.765625e-4,-1.4293610867611717e-3 l 9.765625e-4,-1.4245965498052016e-3 l 9.765625e-4,-1.4198557958957636e-3 l 9.765625e-4,-1.415138667005711e-3 l 9.765625e-4,-1.4104450064186258e-3 l 9.765625e-4,-1.4057746587152753e-3 l 9.765625e-4,-1.4011274697607323e-3 l 9.765625e-4,-1.3965032866923854e-3 l 9.765625e-4,-1.391901957905839e-3 l 9.765625e-4,-1.3873233330442547e-3 l 9.765625e-4,-1.3827672629850296e-3 l 9.765625e-4,-1.378233599827805e-3 l 9.765625e-4,-1.3737221968822544e-3 l 9.765625e-4,-1.369232908657203e-3 l 9.765625e-4,-1.3647655908475276e-3 l 9.765625e-4,-1.3603201003236087e-3 l 9.765625e-4,-1.355896295119341e-3 l 9.765625e-4,-1.3514940344208082e-3 l 9.765625e-4,-1.3471131785556256e-3 l 9.765625e-4,-1.3427535889810605e-3 l 9.765625e-4,-1.3384151282734846e-3 l 9.765625e-4,-1.3340976601178278e-3 l 9.765625e-4,-1.329801049296142e-3 l 9.765625e-4,-1.3255251616778319e-3 l 9.765625e-4,-1.3212698642085519e-3 l 9.765625e-4,-1.317035024900104e-3 l 9.765625e-4,-1.3128205128205561e-3 l 9.765625e-4,-1.3086261980830294e-3 l 9.765625e-4,-1.30445195183726e-3 l 9.765625e-4,-1.3002976462580529e-3 l 9.765625e-4,-1.2961631545370667e-3 l 9.765625e-4,-1.2920483508719327e-3 l 9.765625e-4,-1.2879531104570408e-3 l 9.765625e-4,-1.283877309474657e-3 l 9.765625e-4,-1.2798208250844878e-3 l 9.765625e-4,-1.2757835354153535e-3 l 9.765625e-4,-1.271765319555973e-3 l 9.765625e-4,-1.2677660575446392e-3 l 9.765625e-4,-1.2637856303624462e-3 l 9.765625e-4,-1.2598239199224093e-3 l 9.765625e-4,-1.2558808090620266e-3 l 9.765625e-4,-1.25195618153362e-3 l 9.765625e-4,-1.2480499219968966e-3 l 9.765625e-4,-1.2441619160094008e-3 l 9.765625e-4,-1.240292050018632e-3 l 9.765625e-4,-1.2364402113539397e-3 l 9.765625e-4,-1.2326062882180855e-3 l 9.765625e-4,-1.2287901696785841e-3 l 9.765625e-4,-1.2249917456611525e-3 l 9.765625e-4,-1.2212109069398291e-3 l 9.765625e-4,-1.2174475451312006e-3 l 9.765625e-4,-1.2137015526846318e-3 l 9.765625e-4,-1.2099728228760487e-3 l 9.765625e-4,-1.2062612497997227e-3 l 9.765625e-4,-1.2025667283608321e-3 l 9.765625e-4,-1.1988891542680236e-3 l 9.765625e-4,-1.1952284240259736e-3 l 9.765625e-4,-1.1915844349282834e-3 l 9.765625e-4,-1.1879570850502619e-3 l 9.765625e-4,-1.1843462732417098e-3 l 9.765625e-4,-1.180751899119481e-3 l 9.765625e-4,-1.177173863061598e-3 l 9.765625e-4,-1.1736120661990368e-3 l 9.765625e-4,-1.1700664104099534e-3 l 9.765625e-4,-1.1665367983121344e-3 l 9.765625e-4,-1.1630231332570018e-3 l 9.765625e-4,-1.1595253193223964e-3 l 9.765625e-4,-1.156043261306472e-3 l 9.765625e-4,-1.1525768647208112e-3 l 9.765625e-4,-1.1491260357844313e-3 l 9.765625e-4,-1.145690681417455e-3 l 9.765625e-4,-1.1422707092341167e-3 l 9.765625e-4,-1.138866027537433e-3 l 9.765625e-4,-1.1354765453125415e-3 l 9.765625e-4,-1.132102172221039e-3 l 9.765625e-4,-1.1287428185943194e-3 l 9.765625e-4,-1.1253983954281344e-3 l 9.765625e-4,-1.1220688143764868e-3 l 9.765625e-4,-1.1187539877460795e-3 l 9.765625e-4,-1.1154538284903204e-3 l 9.765625e-4,-1.112168250203105e-3 l 9.765625e-4,-1.1088971671142644e-3 l 9.765625e-4,-1.1056404940830156e-3 l 9.765625e-4,-1.1023981465931865e-3 l 9.765625e-4,-1.0991700407465554e-3 l 9.765625e-4,-1.0959560932590762e-3 l 9.765625e-4,-1.0927562214537723e-3 l 9.765625e-4,-1.0895703432572956e-3 l 9.765625e-4,-1.0863983771923769e-3 l 9.765625e-4,-1.0832402423750498e-3 l 9.765625e-4,-1.080095858507435e-3 l 9.765625e-4,-1.0769651458740759e-3 l 9.765625e-4,-1.073848025336055e-3 l 9.765625e-4,-1.0707444183265524e-3 l 9.765625e-4,-1.0676542468449624e-3 l 9.765625e-4,-1.0645774334534508e-3 l 9.765625e-4,-1.0615139012709607e-3 l 9.765625e-4,-1.0584635739684378e-3 l 9.765625e-4,-1.055426375764723e-3 l 9.765625e-4,-1.0524022314216674e-3 l 9.765625e-4,-1.0493910662386918e-3 l 9.765625e-4,-1.0463928060494565e-3 l 9.765625e-4,-1.043407377216199e-3 l 9.765625e-4,-1.040434706625848e-3 l 9.765625e-4,-1.0374747216852498e-3 l 9.765625e-4,-1.0345273503168384e-3 l 9.765625e-4,-1.0315925209541943e-3 l 9.765625e-4,-1.0286701625379369e-3 l 9.765625e-4,-1.0257602045109504e-3 l 9.765625e-4,-1.0228625768146093e-3 l 9.765625e-4,-1.0199772098842264e-3 l 9.765625e-4,-1.0171040346450555e-3 l 9.765625e-4,-1.0142429825082955e-3 l 9.765625e-4,-1.0113939853664267e-3 l 9.765625e-4,-1.0085569755897694e-3 l 9.765625e-4,-1.0057318860222653e-3 l 9.765625e-4,-1.00291864997748e-3 l 9.765625e-4,-1.000117201234496e-3 l 9.765625e-4,-9.973274740344706e-4 l 9.765625e-4,-9.945494030760837e-4 l 9.765625e-4,-9.917829235126518e-4 l 9.765625e-4,-9.890279709472427e-4 l 9.765625e-4,-9.86284481430122e-4 l 9.765625e-4,-9.83552391453868e-4 l 9.765625e-4,-9.808316379504856e-4 l 9.765625e-4,-9.78122158287742e-4 l 9.765625e-4,-9.754238902648371e-4 l 9.765625e-4,-9.727367721097391e-4 l 9.765625e-4,-9.700607424754093e-4 l 9.765625e-4,-9.673957404356948e-4 l 9.765625e-4,-9.647417054824414e-4 l 9.765625e-4,-9.620985775221635e-4 l 9.765625e-4,-9.594662968723799e-4 l 9.765625e-4,-9.568448042579503e-4 l 9.765625e-4,-9.542340408084105e-4 l 9.765625e-4,-9.51633948054198e-4 l 9.765625e-4,-9.490444679234322e-4 l 9.765625e-4,-9.464655427388058e-4 l 9.765625e-4,-9.438971152144759e-4 l 9.765625e-4,-9.413391284522898e-4 l 9.765625e-4,-9.387915259396751e-4 l 9.765625e-4,-9.362542515450878e-4 l 9.765625e-4,-9.337272495167914e-4 l 9.765625e-4,-9.312104644775276e-4 l 9.765625e-4,-9.287038414238502e-4 l 9.765625e-4,-9.26207325721129e-4 l 9.765625e-4,-9.237208631016625e-4 l 9.765625e-4,-9.212443996616804e-4 l 9.765625e-4,-9.187778818581238e-4 l 9.765625e-4,-9.163212565055368e-4 l 9.765625e-4,-9.138744707738455e-4 l 9.765625e-4,-9.114374721851393e-4 l 9.765625e-4,-9.090102086106722e-4 l 9.765625e-4,-9.065926282687542e-4 l 9.765625e-4,-9.041846797208652e-4 l 9.765625e-4,-9.017863118701008e-4 l 9.765625e-4,-8.993974739578414e-4 l 9.765625e-4,-8.970181155611989e-4 l 9.765625e-4,-8.946481865900191e-4 l 9.765625e-4,-8.922876372851052e-4 l 9.765625e-4,-8.899364182144431e-4 l 9.765625e-4,-8.875944802718694e-4 l 9.765625e-4,-8.85261774673185e-4 l 9.765625e-4,-8.829382529549346e-4 l 9.765625e-4,-8.806238669707422e-4 l 9.765625e-4,-8.783185688896467e-4 l 9.765625e-4,-8.760223111933252e-4 l 9.765625e-4,-8.737350466730964e-4 l 9.765625e-4,-8.71456728428921e-4 l 9.765625e-4,-8.691873098652936e-4 l 9.765625e-4,-8.66926744690022e-4 l 9.765625e-4,-8.646749869116732e-4 l 9.765625e-4,-8.624319908366873e-4 l 9.765625e-4,-8.601977110676007e-4 l 9.765625e-4,-8.579721025009368e-4 l 9.765625e-4,-8.557551203237646e-4 l 9.765625e-4,-8.535467200133651e-4 l 9.765625e-4,-8.513468573329019e-4 l 9.765625e-4,-8.49155488330755e-4 l 9.765625e-4,-8.46972569337634e-4 l 9.765625e-4,-8.447980569644686e-4 l 9.765625e-4,-8.426319081004108e-4 l 9.765625e-4,-8.404740799107246e-4 l 9.765625e-4,-8.383245298342334e-4 l 9.765625e-4,-8.36183215581765e-4 l 9.765625e-4,-8.340500951338203e-4 l 9.765625e-4,-8.319251267385752e-4 l 9.765625e-4,-8.298082689097708e-4 l 9.765625e-4,-8.27699480424493e-4 l 9.765625e-4,-8.255987203220627e-4 l 9.765625e-4,-8.235059479003715e-4 l 9.765625e-4,-8.214211227157708e-4 l 9.765625e-4,-8.193442045800747e-4 l 9.765625e-4,-8.172751535583389e-4 l 9.765625e-4,-8.152139299679728e-4 l 9.765625e-4,-8.131604943761861e-4 l 9.765625e-4,-8.111148075978791e-4 l 9.765625e-4,-8.090768306943108e-4 l 9.765625e-4,-8.070465249712111e-4 l 9.765625e-4,-8.050238519762276e-4 l 9.765625e-4,-8.030087734981484e-4 l 9.765625e-4,-8.010012515644593e-4 l 1.953125e-3,-1.5960099750623735e-3 l 1.953125e-3,-1.5880696269277017e-3 l 1.953125e-3,-1.5801883880843803e-3 l 1.953125e-3,-1.5723656732918867e-3 l 1.953125e-3,-1.5646009045349185e-3 l 1.953125e-3,-1.5568935109164794e-3 l 1.953125e-3,-1.549242928553296e-3 l 1.953125e-3,-1.541648600472123e-3 l 1.953125e-3,-1.534109976508935e-3 l 1.953125e-3,-1.5266265132088952e-3 l 1.953125e-3,-1.519197673728545e-3 l 1.953125e-3,-1.5118229277396589e-3 l 1.953125e-3,-1.5045017513339864e-3 l 1.953125e-3,-1.497233626931549e-3 l 1.953125e-3,-1.490018043187269e-3 l 1.953125e-3,-1.4828544949027078e-3 l 1.953125e-3,-1.4757424829366927e-3 l 1.953125e-3,-1.4686815141188303e-3 l 1.953125e-3,-1.4616711011636863e-3 l 1.953125e-3,-1.4547107625866307e-3 l 1.953125e-3,-1.4478000226219034e-3 l 1.953125e-3,-1.4409384111402357e-3 l 1.953125e-3,-1.434125463569802e-3 l 1.953125e-3,-1.4273607208171724e-3 l 1.953125e-3,-1.4206437291898188e-3 l 1.953125e-3,-1.4139740403202872e-3 l 1.953125e-3,-1.4073512110917008e-3 l 1.953125e-3,-1.400774803563265e-3 l 1.953125e-3,-1.3942443848985464e-3 l 1.953125e-3,-1.3877595272944188e-3 l 1.953125e-3,-1.3813198079102307e-3 l 1.953125e-3,-1.374924808799527e-3 l 1.953125e-3,-1.3685741168419918e-3 l 1.953125e-3,-1.3622673236768357e-3 l 1.953125e-3,-1.3560040256369588e-3 l 1.953125e-3,-1.3497838236845583e-3 l 1.953125e-3,-1.3436063233471796e-3 l 1.953125e-3,-1.3374711346562096e-3 l 1.953125e-3,-1.3313778720837055e-3 l 1.953125e-3,-1.3253261544833306e-3 l 1.953125e-3,-1.3193156050298471e-3 l 1.953125e-3,-1.3133458511610518e-3 l 1.953125e-3,-1.307416524519156e-3 l 1.953125e-3,-1.3015272608951634e-3 l 1.953125e-3,-1.2956777001721376e-3 l 1.953125e-3,-1.2898674862699133e-3 l 1.953125e-3,-1.2840962670920275e-3 l 1.953125e-3,-1.2783636944710963e-3 l 1.953125e-3,-1.2726694241170788e-3 l 1.953125e-3,-1.2670131155654296e-3 l 1.953125e-3,-1.2613944321261394e-3 l 1.953125e-3,-1.2558130408335533e-3 l 1.953125e-3,-1.2502686123971873e-3 l 1.953125e-3,-1.2447608211532124e-3 l 1.953125e-3,-1.239289345016159e-3 l 1.953125e-3,-1.2338538654328435e-3 l 1.953125e-3,-1.2284540673346278e-3 l 1.953125e-3,-1.2230896390930113e-3 l 1.953125e-3,-1.217760272473889e-3 l 1.953125e-3,-1.212465662593476e-3 l 1.953125e-3,-1.2072055078752308e-3 l 1.953125e-3,-1.2019795100054464e-3 l 1.953125e-3,-1.1967873738932822e-3 l 1.953125e-3,-1.1916288076263548e-3 l 1.953125e-3,-1.186503522432325e-3 l 1.953125e-3,-1.1814112326364867e-3 l 1.953125e-3,-1.1763516556231313e-3 l 1.953125e-3,-1.1713245117955795e-3 l 1.953125e-3,-1.1663295245384342e-3 l 1.953125e-3,-1.1613664201787222e-3 l 1.953125e-3,-1.1564349279487018e-3 l 1.953125e-3,-1.1515347799488929e-3 l 1.953125e-3,-1.1466657111119938e-3 l 1.953125e-3,-1.1418274591662447e-3 l 1.953125e-3,-1.1370197646013436e-3 l 1.953125e-3,-1.1322423706324747e-3 l 1.953125e-3,-1.1274950231665581e-3 l 1.953125e-3,-1.122777470768277e-3 l 1.953125e-3,-1.1180894646273254e-3 l 1.953125e-3,-1.1134307585246583e-3 l 1.953125e-3,-1.1088011088011829e-3 l 1.953125e-3,-1.1042002743246737e-3 l 1.953125e-3,-1.0996280164601302e-3 l 1.953125e-3,-1.0950840990366917e-3 l 1.953125e-3,-1.0905682883189938e-3 l 1.953125e-3,-1.086080352976082e-3 l 1.953125e-3,-1.0816200640522133e-3 l 1.953125e-3,-1.0771871949372125e-3 l 1.953125e-3,-1.072781521338273e-3 l 1.953125e-3,-1.068402821251202e-3 l 1.953125e-3,-1.0640508749324429e-3 l 1.953125e-3,-1.0597254648717636e-3 l 1.953125e-3,-1.055426375764723e-3 l 1.953125e-3,-1.0511533944864704e-3 l 1.953125e-3,-1.0469063100640996e-3 l 1.953125e-3,-1.0426849136526695e-3 l 1.953125e-3,-1.0384889985072254e-3 l 1.953125e-3,-1.03431835995893e-3 l 1.953125e-3,-1.030172795389972e-3 l 1.953125e-3,-1.0260521042084747e-3 l 1.953125e-3,-1.021956087824294e-3 l 1.953125e-3,-1.0178845496258138e-3 l 1.953125e-3,-1.0138372949554109e-3 l 1.953125e-3,-1.0098141310864728e-3 l 1.953125e-3,-1.0058148672010825e-3 l 1.953125e-3,-1.0018393143661486e-3 l 1.953125e-3,-9.978872855127552e-4 l 1.953125e-3,-9.93958595412181e-4 l 1.953125e-3,-9.900530606562485e-4 l 1.953125e-3,-9.861704996340093e-4 l 1.953125e-3,-9.823107325122038e-4 l 1.953125e-3,-9.784735812132794e-4 l 1.953125000000111e-3,-9.746588693958502e-4 l 1.953125e-3,-9.708664224330477e-4 l 1.953125e-3,-9.67096067394535e-4 l 1.953125e-3,-9.63347633024747e-4 l 1.953125e-3,-9.596209497248487e-4 l 1.953125e-3,-9.559158495328623e-4 l 1.953125e-3,-9.522321661050159e-4 l 1.953125e-3,-9.485697346968691e-4 l 1.953125e-3,-9.449283921453278e-4 l 1.953125e-3,-9.413079768497146e-4 l 1.953125e-3,-9.377083287546717e-4 l 1.953125e-3,-9.34129289331953e-4 l 1.953125e-3,-9.305707015630493e-4 l 1.953125e-3,-9.270324099221461e-4 l 1.953125e-3,-9.235142603588598e-4 l 1.953125e-3,-9.200161002817508e-4 l 1.953125e-3,-9.165377785415596e-4 l 1.953125e-3,-9.130791454149967e-4 l 1.953125e-3,-9.096400525885895e-4 l 1.953125e-3,-9.062203531427504e-4 l 1.953125e-3,-9.028199015361782e-4 l 1.953125e-3,-8.994385535903704e-4 l 1.953125e-3,-8.960761664741357e-4 l 1.953125e-3,-8.927325986888279e-4 l 1.953125e-3,-8.894077100530806e-4 l 1.953125e-3,-8.86101361688596e-4 l 1.953125e-3,-8.828134160051015e-4 l 1.953125e-3,-8.795437366865833e-4 l 1.953125e-3,-8.762921886766861e-4 l 1.953125e-3,-8.730586381649474e-4 l 1.953125e-3,-8.69842952573141e-4 l 1.953125e-3,-8.66645000541677e-4 l 1.953125e-3,-8.634646519157796e-4 l 1.953125e-3,-8.603017777329969e-4 l 1.953125e-3,-8.571562502092678e-4 l 1.953125e-3,-8.54027942726765e-4 l 1.953125e-3,-8.509167298206277e-4 l 1.953125e-3,-8.478224871667495e-4 l 1.953125e-3,-8.447450915690657e-4 l 1.953125e-3,-8.416844209473973e-4 l 1.953125e-3,-8.386403543255705e-4 l 1.953125e-3,-8.356127718189277e-4 l 1.953125e-3,-8.326015546232246e-4 l 1.953125e-3,-8.296065850022516e-4 l 1.953125e-3,-8.266277462769533e-4 l 1.953125e-3,-8.23664922813605e-4 l 1.953125e-3,-8.207180000128211e-4 l 1.953125e-3,-8.177868642985087e-4 l 1.953125e-3,-8.148714031067095e-4 l 1.953125e-3,-8.119715048749976e-4 l 1.953125e-3,-8.090870590317101e-4 l 1.953125e-3,-8.062179559855664e-4 l 1.953125e-3,-8.033640871147885e-4 l 1.953125e-3,-8.005253447574967e-4 l 1.953125e-3,-7.977016222010525e-4 l 1.953125e-3,-7.948928136721212e-4 l 1.953125e-3,-7.920988143271246e-4 l 1.953125e-3,-7.893195202416936e-4 l 1.953125e-3,-7.865548284020085e-4 l 1.953125e-3,-7.838046366943074e-4 l 1.953125e-3,-7.8106884389606e-4 l 1.953125e-3,-7.78347349666475e-4 l 1.953125e-3,-7.756400545371744e-4 l 1.953125e-3,-7.729468599034228e-4 l 1.953125e-3,-7.702676680146348e-4 l 1.953125e-3,-7.676023819661038e-4 l 1.953125e-3,-7.649509056899539e-4 l 1.953125e-3,-7.623131439461472e-4 l 1.953125e-3,-7.596890023146563e-4 l 1.953125e-3,-7.570783871864717e-4 l 1.953125e-3,-7.544812057552752e-4 l 1.953125e-3,-7.518973660095574e-4 l 1.953125e-3,-7.49326776724013e-4 l 1.953125e-3,-7.467693474519366e-4 l 1.953125e-3,-7.442249885168395e-4 l 1.953125e-3,-7.416936110049011e-4 l 1.953125e-3,-7.391751267569746e-4 l 1.953125e-3,-7.366694483612046e-4 l 1.953125e-3,-7.341764891450886e-4 l 1.953125e-3,-7.316961631682051e-4 l 1.953125e-3,-7.292283852149417e-4 l 1.953125e-3,-7.267730707865572e-4 l 1.953125e-3,-7.243301360947973e-4 l 1.953125e-3,-7.218994980542903e-4 l 1.953125e-3,-7.194810742751634e-4 l 1.953125e-3,-7.170747830568813e-4 l 1.953125e-3,-7.146805433805303e-4 l 1.953125e-3,-7.122982749026008e-4 l 1.953125e-3,-7.099278979478818e-4 l 1.953125e-3,-7.075693335028554e-4 l 1.953125e-3,-7.052225032093129e-4 l 1.953125e-3,-7.028873293576376e-4 l 1.953125e-3,-7.005637348804217e-4 l 1.953125e-3,-6.982516433461372e-4 l 1.953125e-3,-6.959509789529195e-4 l 1.953125e-3,-6.936616665221829e-4 l 1.953125e-3,-6.913836314925148e-4 l 1.953125e-3,-6.89116799913847e-4 l 1.953125e-3,-6.868610984411272e-4 l 1.953125e-3,-6.846164543286015e-4 l 1.953125e-3,-6.823827954237638e-4 l 1.953125e-3,-6.801600501618044e-4 l 1.953125e-3,-6.779481475596705e-4 l 1.953125e-3,-6.757470172104041e-4 l 1.953125e-3,-6.735565892778683e-4 l 1.953125e-3,-6.713767944904747e-4 l 1.953125e-3,-6.692075641367423e-4 l 1.953125e-3,-6.670488300589139e-4 l 1.953125e-3,-6.64900524648071e-4 l 1.953125e-3,-6.627625808389159e-4 l 1.953125e-3,-6.606349321042759e-4 l 1.953125e-3,-6.585175124501075e-4 l 1.953125e-3,-6.564102564102225e-4 l 1.953125e-3,-6.543130990415702e-4 l 1.953125e-3,-6.522259759185745e-4 l 1.953125e-3,-6.501488231290264e-4 l 1.953125e-3,-6.480815772685333e-4 l 1.953125e-3,-6.460241754359664e-4 l 1.953125e-3,-6.439765552285204e-4 l 1.953125e-3,-6.419386547373285e-4 l 1.953125e-3,-6.399104125422439e-4 l 1.953125e-3,-6.378917677077323e-4 l 3.90625e-3,-1.2697656885502506e-3 l 3.90625e-3,-1.2618047751424832e-3 l 3.90625e-3,-1.2539184952977678e-3 l 3.90625e-3,-1.2461059190031487e-3 l 3.90625e-3,-1.2383661306863414e-3 l 3.90625e-3,-1.2306982289482793e-3 l 3.90625e-3,-1.2231013263005464e-3 l 3.90625e-3,-1.2155745489078607e-3 l 3.90625e-3,-1.2081170363378857e-3 l 3.90625e-3,-1.2007279413144278e-3 l 3.90625e-3,-1.1934064294771285e-3 l 3.90625e-3,-1.1861516791459858e-3 l 3.90625e-3,-1.1789628810905395e-3 l 3.90625e-3,-1.171839238304495e-3 l 3.90625e-3,-1.164779965784568e-3 l 3.90625e-3,-1.1577842903144342e-3 l 3.90625e-3,-1.1508514502526213e-3 l 3.90625e-3,-1.1439806953257858e-3 l 3.90625e-3,-1.1371712864250427e-3 l 3.90625e-3,-1.1304224954076236e-3 l 3.90625e-3,-1.1237336049023106e-3 l 3.90625e-3,-1.1171039081182e-3 l 3.90625e-3,-1.1105327086586847e-3 l 3.90625e-3,-1.104019320338101e-3 l 3.90625e-3,-1.0975630670028158e-3 l 3.90625e-3,-1.091163282355534e-3 l 3.90625e-3,-1.0848193097837133e-3 l 3.90625e-3,-1.0785305021907554e-3 l 3.90625e-3,-1.0722962218313037e-3 l 3.90625e-3,-1.066115840149262e-3 l 3.90625e-3,-1.0599887376196437e-3 l 3.90625e-3,-1.0539143035931953e-3 l 3.90625e-3,-1.0478919361440742e-3 l 3.90625e-3,-1.0419210419210234e-3 l 3.90625e-3,-1.036001036001044e-3 l 3.90625e-3,-1.0301313417460656e-3 l 3.90625e-3,-1.0243113906627799e-3 l 3.90625e-3,-1.018540622264641e-3 l 3.90625e-3,-1.012818483937361e-3 l 3.90625e-3,-1.0071444308060173e-3 l 3.90625e-3,-1.001517925605988e-3 l 3.90625e-3,-9.959384385552772e-4 l 3.90625e-3,-9.904054472299473e-4 l 3.90625e-3,-9.84918436441995e-4 l 3.90625e-3,-9.794768981191138e-4 l 3.90625e-3,-9.740803311872881e-4 l 3.90625e-3,-9.687282414554965e-4 l 3.90625e-3,-9.63420141502358e-4 l 3.90625e-3,-9.581555505651651e-4 l 3.90625e-3,-9.529339944313042e-4 l 3.90625e-3,-9.47755005331119e-4 l 3.90625e-3,-9.426181218333829e-4 l 3.90625e-3,-9.375228887423814e-4 l 3.90625e-3,-9.324688569971595e-4 l 3.90625e-3,-9.274555835724341e-4 l 3.90625e-3,-9.224826313817269e-4 l 3.90625e-3,-9.175495691818303e-4 l 3.90625e-3,-9.126559714794924e-4 l 3.90625e-3,-9.078014184397132e-4 l 3.90625e-3,-9.02985495795483e-4 l 3.90625e-3,-8.982077947595202e-4 l 3.90625e-3,-8.934679119375621e-4 l 3.90625e-3,-8.887654492431563e-4 l 3.90625e-3,-8.841000138140598e-4 l 3.90625e-3,-8.794712179301944e-4 l 3.90625e-3,-8.748786789332108e-4 l 3.90625e-3,-8.703220191466632e-4 Z" /></g><path d="M 1.5,7.58 l -1.1102230246251565e-16,-1.0 h -1.0 l -1.1102230246251565e-16,1.0 h 1.0 Z" /></g><g><g><g stroke="rgb(128,128,128)" stroke-opacity="1.0" fill-opacity="0.0"><path d="M 4.5,3.0600000000000005 c -0.3297016590802621,0.7362181811660446 -0.3534380628495978,1.5732562564576142 -6.598747341837083e-2 2.3269754036970594" /></g><g stroke-width="0.0"><g fill="rgb(128,128,128)" fill-opacity="1.0"><path d="" /></g><g fill="rgb(0,0,0)" fill-opacity="1.0"><path d="" /></g></g><g stroke-width="0.0"><g fill="rgb(128,128,128)" fill-opacity="1.0"><path d="M 4.500000000000001,5.5600000000000005 l -0.1790741772790443,-0.22212204703429606 l 0.11493276774102662,5.3937982442919606e-2 l 4.982742032133307e-2,-0.11677360675575058 l 1.43139892166846e-2,0.284957671347127 Z" /></g><g fill="rgb(128,128,128)" fill-opacity="1.0"><path d="M 4.435858590461983,5.391815935408624 l -6.517843452336094e-3,-3.0588258910631836e-3 l 9.343559143965343e-3,-3.5634116410009752e-3 l -2.825715691629249e-3,6.622237532064159e-3 h -0.0 Z" /></g></g></g></g><g><g><g stroke="rgb(128,128,128)" stroke-opacity="1.0" fill-opacity="0.0"><path d="M 4.5,2.0600000000000005 c -0.46282960491979624,1.0563501736527983 -0.48706944161020793,2.253293339042234 -6.73870226854068e-2 3.3275156623123947" /></g><g stroke-width="0.0"><g fill="rgb(128,128,128)" fill-opacity="1.0"><path d="" /></g><g fill="rgb(0,0,0)" fill-opacity="1.0"><path d="" /></g></g><g stroke-width="0.0"><g fill="rgb(128,128,128)" fill-opacity="1.0"><path d="M 4.5,5.560000000000001 l -0.18086776602418997,-0.22066403413400085 l 0.11536596097388434,5.300511389665783e-2 l 4.887977357743284e-2,-0.11717343890850168 l 1.6622031472872792e-2,0.2848323591458447 Z" /></g><g fill="rgb(128,128,128)" fill-opacity="1.0"><path d="M 4.434498194949694,5.392341079762659 l -6.542409863916297e-3,-3.0059228655322655e-3 l 9.314384457630151e-3,-3.6389891694614167e-3 l -2.771974593713854e-3,6.644912034993683e-3 h -0.0 Z" /></g></g></g></g><g><g><g stroke="rgb(128,128,128)" stroke-opacity="1.0" fill-opacity="0.0"><path d="M 5.5,2.0600000000000005 c -0.46282960491979624,1.0563501736527983 -0.48706944161020793,2.253293339042234 -6.73870226854068e-2 3.3275156623123947" /></g><g stroke-width="0.0"><g fill="rgb(128,128,128)" fill-opacity="1.0"><path d="" /></g><g fill="rgb(0,0,0)" fill-opacity="1.0"><path d="" /></g></g><g stroke-width="0.0"><g fill="rgb(128,128,128)" fill-opacity="1.0"><path d="M 5.5,5.560000000000001 l -0.18086776602418997,-0.22066403413400085 l 0.11536596097388434,5.300511389665783e-2 l 4.887977357743284e-2,-0.11717343890850168 l 1.6622031472872792e-2,0.2848323591458447 Z" /></g><g fill="rgb(128,128,128)" fill-opacity="1.0"><path d="M 5.434498194949694,5.392341079762659 l -6.542409863916297e-3,-3.0059228655322655e-3 l 9.314384457630151e-3,-3.6389891694614167e-3 l -2.771974593713854e-3,6.644912034993683e-3 h -0.0 Z" /></g></g></g></g><g><g><g stroke="rgb(128,128,128)" stroke-opacity="1.0" fill-opacity="0.0"><path d="M 5.5,3.0600000000000005 c -0.3297016590802621,0.7362181811660446 -0.3534380628495978,1.5732562564576142 -6.598747341837083e-2 2.3269754036970594" /></g><g stroke-width="0.0"><g fill="rgb(128,128,128)" fill-opacity="1.0"><path d="" /></g><g fill="rgb(0,0,0)" fill-opacity="1.0"><path d="" /></g></g><g stroke-width="0.0"><g fill="rgb(128,128,128)" fill-opacity="1.0"><path d="M 5.500000000000001,5.5600000000000005 l -0.1790741772790443,-0.22212204703429606 l 0.11493276774102662,5.3937982442919606e-2 l 4.982742032133307e-2,-0.11677360675575058 l 1.43139892166846e-2,0.284957671347127 Z" /></g><g fill="rgb(128,128,128)" fill-opacity="1.0"><path d="M 5.435858590461983,5.391815935408624 l -6.517843452336094e-3,-3.0588258910631836e-3 l 9.343559143965343e-3,-3.5634116410009752e-3 l -2.825715691629249e-3,6.622237532064159e-3 h -0.0 Z" /></g></g></g></g><g fill="rgb(0,128,0)" fill-opacity="1.0" stroke-width="0.0"><path d="M 4.52,5.5600000000000005 c 0.0,-1.104569499661587e-2 -8.954305003384129e-3,-2.0e-2 -1.9999999999999997e-2 -2.0e-2c -1.104569499661587e-2,-6.763537510981779e-19 -2.0e-2,8.954305003384127e-3 -2.0e-2 1.9999999999999993e-2c -1.3527075021963559e-18,1.104569499661587e-2 8.954305003384127e-3,2.0e-2 1.999999999999999e-2 2.0e-2c 1.104569499661587e-2,2.0290612532945338e-18 2.0e-2,-8.954305003384126e-3 2.0000000000000004e-2 -1.9999999999999993e-2Z" /></g><g fill="rgb(0,128,0)" fill-opacity="1.0" stroke-width="0.0"><path d="M 4.52,5.5600000000000005 c 0.0,-1.104569499661587e-2 -8.954305003384129e-3,-2.0e-2 -1.9999999999999997e-2 -2.0e-2c -1.104569499661587e-2,-6.763537510981779e-19 -2.0e-2,8.954305003384127e-3 -2.0e-2 1.9999999999999993e-2c -1.3527075021963559e-18,1.104569499661587e-2 8.954305003384127e-3,2.0e-2 1.999999999999999e-2 2.0e-2c 1.104569499661587e-2,2.0290612532945338e-18 2.0e-2,-8.954305003384126e-3 2.0000000000000004e-2 -1.9999999999999993e-2Z" /></g><g fill="rgb(0,128,0)" fill-opacity="1.0" stroke-width="0.0"><path d="M 5.52,5.5600000000000005 c 0.0,-1.104569499661587e-2 -8.954305003384129e-3,-2.0e-2 -1.9999999999999997e-2 -2.0e-2c -1.104569499661587e-2,-6.763537510981779e-19 -2.0e-2,8.954305003384127e-3 -2.0e-2 1.9999999999999993e-2c -1.3527075021963559e-18,1.104569499661587e-2 8.954305003384127e-3,2.0e-2 1.999999999999999e-2 2.0e-2c 1.104569499661587e-2,2.0290612532945338e-18 2.0e-2,-8.954305003384126e-3 2.0000000000000004e-2 -1.9999999999999993e-2Z" /></g><g fill="rgb(0,128,0)" fill-opacity="1.0" stroke-width="0.0"><path d="M 5.52,5.5600000000000005 c 0.0,-1.104569499661587e-2 -8.954305003384129e-3,-2.0e-2 -1.9999999999999997e-2 -2.0e-2c -1.104569499661587e-2,-6.763537510981779e-19 -2.0e-2,8.954305003384127e-3 -2.0e-2 1.9999999999999993e-2c -1.3527075021963559e-18,1.104569499661587e-2 8.954305003384127e-3,2.0e-2 1.999999999999999e-2 2.0e-2c 1.104569499661587e-2,2.0290612532945338e-18 2.0e-2,-8.954305003384126e-3 2.0000000000000004e-2 -1.9999999999999993e-2Z" /></g><g fill="rgb(0,0,255)" fill-opacity="1.0" stroke-width="0.0"><path d="M 5.52,3.0600000000000005 c 0.0,-1.104569499661587e-2 -8.954305003384129e-3,-2.0e-2 -1.9999999999999997e-2 -2.0e-2c -1.104569499661587e-2,-6.763537510981779e-19 -2.0e-2,8.954305003384127e-3 -2.0e-2 1.9999999999999993e-2c -1.3527075021963559e-18,1.104569499661587e-2 8.954305003384127e-3,2.0e-2 1.999999999999999e-2 2.0e-2c 1.104569499661587e-2,2.0290612532945338e-18 2.0e-2,-8.954305003384126e-3 2.0000000000000004e-2 -1.9999999999999993e-2Z" /></g><g fill="rgb(0,0,255)" fill-opacity="1.0" stroke-width="0.0"><path d="M 4.52,3.0600000000000005 c 0.0,-1.104569499661587e-2 -8.954305003384129e-3,-2.0e-2 -1.9999999999999997e-2 -2.0e-2c -1.104569499661587e-2,-6.763537510981779e-19 -2.0e-2,8.954305003384127e-3 -2.0e-2 1.9999999999999993e-2c -1.3527075021963559e-18,1.104569499661587e-2 8.954305003384127e-3,2.0e-2 1.999999999999999e-2 2.0e-2c 1.104569499661587e-2,2.0290612532945338e-18 2.0e-2,-8.954305003384126e-3 2.0000000000000004e-2 -1.9999999999999993e-2Z" /></g><g fill="rgb(0,0,255)" fill-opacity="1.0" stroke-width="0.0"><path d="M 4.52,3.0600000000000005 c 0.0,-1.104569499661587e-2 -8.954305003384129e-3,-2.0e-2 -1.9999999999999997e-2 -2.0e-2c -1.104569499661587e-2,-6.763537510981779e-19 -2.0e-2,8.954305003384127e-3 -2.0e-2 1.9999999999999993e-2c -1.3527075021963559e-18,1.104569499661587e-2 8.954305003384127e-3,2.0e-2 1.999999999999999e-2 2.0e-2c 1.104569499661587e-2,2.0290612532945338e-18 2.0e-2,-8.954305003384126e-3 2.0000000000000004e-2 -1.9999999999999993e-2Z" /></g><g fill="rgb(0,0,255)" fill-opacity="1.0" stroke-width="0.0"><path d="M 4.52,2.0600000000000005 c 0.0,-1.104569499661587e-2 -8.954305003384129e-3,-2.0e-2 -1.9999999999999997e-2 -2.0e-2c -1.104569499661587e-2,-6.763537510981779e-19 -2.0e-2,8.954305003384127e-3 -2.0e-2 1.9999999999999993e-2c -1.3527075021963559e-18,1.104569499661587e-2 8.954305003384127e-3,2.0e-2 1.999999999999999e-2 2.0e-2c 1.104569499661587e-2,2.0290612532945338e-18 2.0e-2,-8.954305003384126e-3 2.0000000000000004e-2 -1.9999999999999993e-2Z" /></g><g fill="rgb(0,0,255)" fill-opacity="1.0" stroke-width="0.0"><path d="M 4.52,2.0600000000000005 c 0.0,-1.104569499661587e-2 -8.954305003384129e-3,-2.0e-2 -1.9999999999999997e-2 -2.0e-2c -1.104569499661587e-2,-6.763537510981779e-19 -2.0e-2,8.954305003384127e-3 -2.0e-2 1.9999999999999993e-2c -1.3527075021963559e-18,1.104569499661587e-2 8.954305003384127e-3,2.0e-2 1.999999999999999e-2 2.0e-2c 1.104569499661587e-2,2.0290612532945338e-18 2.0e-2,-8.954305003384126e-3 2.0000000000000004e-2 -1.9999999999999993e-2Z" /></g><g fill="rgb(0,0,255)" fill-opacity="1.0" stroke-width="0.0"><path d="M 5.52,2.0600000000000005 c 0.0,-1.104569499661587e-2 -8.954305003384129e-3,-2.0e-2 -1.9999999999999997e-2 -2.0e-2c -1.104569499661587e-2,-6.763537510981779e-19 -2.0e-2,8.954305003384127e-3 -2.0e-2 1.9999999999999993e-2c -1.3527075021963559e-18,1.104569499661587e-2 8.954305003384127e-3,2.0e-2 1.999999999999999e-2 2.0e-2c 1.104569499661587e-2,2.0290612532945338e-18 2.0e-2,-8.954305003384126e-3 2.0000000000000004e-2 -1.9999999999999993e-2Z" /></g><g fill="rgb(0,0,255)" fill-opacity="1.0" stroke-width="0.0"><path d="M 5.52,2.0600000000000005 c 0.0,-1.104569499661587e-2 -8.954305003384129e-3,-2.0e-2 -1.9999999999999997e-2 -2.0e-2c -1.104569499661587e-2,-6.763537510981779e-19 -2.0e-2,8.954305003384127e-3 -2.0e-2 1.9999999999999993e-2c -1.3527075021963559e-18,1.104569499661587e-2 8.954305003384127e-3,2.0e-2 1.999999999999999e-2 2.0e-2c 1.104569499661587e-2,2.0290612532945338e-18 2.0e-2,-8.954305003384126e-3 2.0000000000000004e-2 -1.9999999999999993e-2Z" /></g><g fill="rgb(0,0,255)" fill-opacity="1.0" stroke-width="0.0"><path d="M 5.52,3.0600000000000005 c 0.0,-1.104569499661587e-2 -8.954305003384129e-3,-2.0e-2 -1.9999999999999997e-2 -2.0e-2c -1.104569499661587e-2,-6.763537510981779e-19 -2.0e-2,8.954305003384127e-3 -2.0e-2 1.9999999999999993e-2c -1.3527075021963559e-18,1.104569499661587e-2 8.954305003384127e-3,2.0e-2 1.999999999999999e-2 2.0e-2c 1.104569499661587e-2,2.0290612532945338e-18 2.0e-2,-8.954305003384126e-3 2.0000000000000004e-2 -1.9999999999999993e-2Z" /></g><path d="M 5.5,3.0600000000000005 l -1.1102230246251565e-16,-1.0 h -1.0 l -1.1102230246251565e-16,1.0 h 1.0 Z" /></g><g><g fill-opacity="0.0" stroke-dasharray="0.1,0.1" stroke-dashoffset="0.0"><path d="M 4.5,-0.96 l -4.5,2.5 " /></g><g fill-opacity="0.0" stroke-dasharray="0.1,0.1" stroke-dashoffset="0.0"><path d="M 4.5,-1.96 l -4.5,3.5 " /></g><g fill-opacity="0.0" stroke-dasharray="0.1,0.1" stroke-dashoffset="0.0"><path d="M 5.5,-1.96 l -5.5,3.5 " /></g><g fill-opacity="0.0" stroke-dasharray="0.1,0.1" stroke-dashoffset="0.0"><path d="M 5.5,-0.96 l -5.5,2.5 " /></g><g><g><g stroke="rgb(128,128,128)" stroke-opacity="1.0" fill-opacity="0.0"><path d="M 4.5,-0.96 c -1.3217188239492736,0.12820898331770064 -2.53837266560944,0.7762176189135643 -3.3823115673329016 1.8014714036629824" /></g><g stroke-width="0.0"><g fill="rgb(128,128,128)" fill-opacity="1.0"><path d="" /></g><g fill="rgb(0,0,0)" fill-opacity="1.0"><path d="" /></g></g><g stroke-width="0.0"><g fill="rgb(128,128,128)" fill-opacity="1.0"><path d="M 0.9999999999999991,0.9844444444444438 l 0.10438155319645953,-0.26553767359673713 l 1.0014430867482882e-2,0.12656444297284242 l 0.1261295948394605,-1.4497322382392229e-2 l -0.24052557890340293,0.15347055300628695 Z" /></g><g fill="rgb(128,128,128)" fill-opacity="1.0"><path d="M 1.1143959840639415,0.8454712138205491 l -5.67918914173988e-4,-7.17747638156493e-3 l 7.720735034660804e-3,6.355332447996789e-3 l -7.152816120486816e-3,8.221439335681412e-4 h -0.0 Z" /></g></g></g></g><g><g><g stroke="rgb(128,128,128)" stroke-opacity="1.0" fill-opacity="0.0"><path d="M 4.5,-1.96 c -1.4302200539754133,0.36879446170625557 -2.655358988595073,1.2906367666567402 -3.4059002226135435 2.56273213014828" /></g><g stroke-width="0.0"><g fill="rgb(128,128,128)" fill-opacity="1.0"><path d="" /></g><g fill="rgb(0,0,0)" fill-opacity="1.0"><path d="" /></g></g><g stroke-width="0.0"><g fill="rgb(128,128,128)" fill-opacity="1.0"><path d="M 1.0000000000000004,0.7622222222222231 l 6.195209094768615e-2,-0.27850979008660043 l 2.9515153456622777e-2,0.12348158877766952 l 0.1223569972414077,-3.387642656319615e-2 l -0.21382424164571662,0.18890462787212706 Z" /></g><g fill="rgb(128,128,128)" fill-opacity="1.0"><path d="M 1.0914672444043094,0.6071940209132922 l -1.6738059431007034e-3,-7.0026475540212445e-3 l 8.612677850496147e-3,5.081513578017154e-3 l -6.938871907395443e-3,1.9211339760040903e-3 h -0.0 Z" /></g></g></g></g><g><g><g stroke="rgb(128,128,128)" stroke-opacity="1.0" fill-opacity="0.0"><path d="M 5.5,-1.96 c -1.7658026139529759,0.2863121321344163 -3.345545498415696,1.2623600218811264 -4.391703250810553 2.713424274612431" /></g><g stroke-width="0.0"><g fill="rgb(128,128,128)" fill-opacity="1.0"><path d="" /></g><g fill="rgb(0,0,0)" fill-opacity="1.0"><path d="" /></g></g><g stroke-width="0.0"><g fill="rgb(128,128,128)" fill-opacity="1.0"><path d="M 1.0,0.9036363636363631 l 8.717290399270364e-2,-0.27167379254604496 l 1.809413809202009e-2,0.12566403310944774 l 0.12494316738731931,-2.254000829302822e-2 l -0.23021020947204304,0.16854976772962543 Z" /></g><g fill="rgb(128,128,128)" fill-opacity="1.0"><path d="M 1.1052670420847237,0.7576266041997659 l -1.0261195462940137e-3,-7.126414089688609e-3 l 8.111653302033166e-3,5.848169004706864e-3 l -7.085533755739152e-3,1.2782450849817455e-3 h -0.0 Z" /></g></g></g></g><g><g><g stroke="rgb(128,128,128)" stroke-opacity="1.0" fill-opacity="0.0"><path d="M 5.5,-0.96 c -1.6531028125878164,3.239100708719432e-2 -3.2256315603114714,0.7201478982185061 -4.371647868330056 1.9119720077587212" /></g><g stroke-width="0.0"><g fill="rgb(128,128,128)" fill-opacity="1.0"><path d="" /></g><g fill="rgb(0,0,0)" fill-opacity="1.0"><path d="" /></g></g><g stroke-width="0.0"><g fill="rgb(128,128,128)" fill-opacity="1.0"><path d="M 1.0000000000000009,1.085454545454545 l 0.12452609538703305,-0.2567080371054482 l 2.3526030729552339e-4,0.12695980349391411 l 0.12687157007246835,-4.738328605344289e-3 l -0.2516329257667969,0.13448656221687838 Z" /></g><g fill="rgb(128,128,128)" fill-opacity="1.0"><path d="M 1.1247613556943294,0.9557063118430109 l -1.3341624704931929e-5,-7.199897298020938e-3 l 7.20823520064077e-3,6.931186427462686e-3 l -7.194893575935838e-3,2.687108705582519e-4 v 4.336808689942018e-19 Z" /></g></g></g></g><g fill="rgb(0,128,0)" fill-opacity="1.0" stroke-width="0.0"><path d="M 1.02,0.9844444444444445 c 0.0,-1.104569499661587e-2 -8.954305003384129e-3,-2.0e-2 -1.9999999999999997e-2 -2.0e-2c -1.104569499661587e-2,-6.763537510981779e-19 -2.0e-2,8.954305003384127e-3 -2.0e-2 1.9999999999999993e-2c -1.3527075021963559e-18,1.104569499661587e-2 8.954305003384127e-3,2.0e-2 1.999999999999999e-2 2.0e-2c 1.104569499661587e-2,2.0290612532945338e-18 2.0e-2,-8.954305003384126e-3 2.0000000000000004e-2 -1.9999999999999993e-2Z" /></g><g fill="rgb(0,128,0)" fill-opacity="1.0" stroke-width="0.0"><path d="M 1.02,0.7622222222222222 c 0.0,-1.104569499661587e-2 -8.954305003384129e-3,-2.0e-2 -1.9999999999999997e-2 -2.0e-2c -1.104569499661587e-2,-6.763537510981779e-19 -2.0e-2,8.954305003384127e-3 -2.0e-2 1.9999999999999993e-2c -1.3527075021963559e-18,1.104569499661587e-2 8.954305003384127e-3,2.0e-2 1.999999999999999e-2 2.0e-2c 1.104569499661587e-2,2.0290612532945338e-18 2.0e-2,-8.954305003384126e-3 2.0000000000000004e-2 -1.9999999999999993e-2Z" /></g><g fill="rgb(0,128,0)" fill-opacity="1.0" stroke-width="0.0"><path d="M 1.02,0.9036363636363637 c 0.0,-1.104569499661587e-2 -8.954305003384129e-3,-2.0e-2 -1.9999999999999997e-2 -2.0e-2c -1.104569499661587e-2,-6.763537510981779e-19 -2.0e-2,8.954305003384127e-3 -2.0e-2 1.9999999999999993e-2c -1.3527075021963559e-18,1.104569499661587e-2 8.954305003384127e-3,2.0e-2 1.999999999999999e-2 2.0e-2c 1.104569499661587e-2,2.0290612532945338e-18 2.0e-2,-8.954305003384126e-3 2.0000000000000004e-2 -1.9999999999999993e-2Z" /></g><g fill="rgb(0,128,0)" fill-opacity="1.0" stroke-width="0.0"><path d="M 1.02,1.0854545454545454 c 0.0,-1.104569499661587e-2 -8.954305003384129e-3,-2.0e-2 -1.9999999999999997e-2 -2.0e-2c -1.104569499661587e-2,-6.763537510981779e-19 -2.0e-2,8.954305003384127e-3 -2.0e-2 1.9999999999999993e-2c -1.3527075021963559e-18,1.104569499661587e-2 8.954305003384127e-3,2.0e-2 1.999999999999999e-2 2.0e-2c 1.104569499661587e-2,2.0290612532945338e-18 2.0e-2,-8.954305003384126e-3 2.0000000000000004e-2 -1.9999999999999993e-2Z" /></g><g fill="rgb(0,0,255)" fill-opacity="1.0" stroke-width="0.0"><path d="M 5.52,-0.96 c 0.0,-1.104569499661587e-2 -8.954305003384129e-3,-2.0e-2 -1.9999999999999997e-2 -2.0e-2c -1.104569499661587e-2,-6.763537510981779e-19 -2.0e-2,8.954305003384127e-3 -2.0e-2 1.9999999999999993e-2c -1.3527075021963559e-18,1.104569499661587e-2 8.954305003384127e-3,2.0e-2 1.999999999999999e-2 2.0e-2c 1.104569499661587e-2,2.0290612532945338e-18 2.0e-2,-8.954305003384126e-3 2.0000000000000004e-2 -1.9999999999999993e-2Z" /></g><g fill="rgb(0,0,255)" fill-opacity="1.0" stroke-width="0.0"><path d="M 4.52,-0.96 c 0.0,-1.104569499661587e-2 -8.954305003384129e-3,-2.0e-2 -1.9999999999999997e-2 -2.0e-2c -1.104569499661587e-2,-6.763537510981779e-19 -2.0e-2,8.954305003384127e-3 -2.0e-2 1.9999999999999993e-2c -1.3527075021963559e-18,1.104569499661587e-2 8.954305003384127e-3,2.0e-2 1.999999999999999e-2 2.0e-2c 1.104569499661587e-2,2.0290612532945338e-18 2.0e-2,-8.954305003384126e-3 2.0000000000000004e-2 -1.9999999999999993e-2Z" /></g><g fill="rgb(0,0,255)" fill-opacity="1.0" stroke-width="0.0"><path d="M 4.52,-0.96 c 0.0,-1.104569499661587e-2 -8.954305003384129e-3,-2.0e-2 -1.9999999999999997e-2 -2.0e-2c -1.104569499661587e-2,-6.763537510981779e-19 -2.0e-2,8.954305003384127e-3 -2.0e-2 1.9999999999999993e-2c -1.3527075021963559e-18,1.104569499661587e-2 8.954305003384127e-3,2.0e-2 1.999999999999999e-2 2.0e-2c 1.104569499661587e-2,2.0290612532945338e-18 2.0e-2,-8.954305003384126e-3 2.0000000000000004e-2 -1.9999999999999993e-2Z" /></g><g fill="rgb(0,0,255)" fill-opacity="1.0" stroke-width="0.0"><path d="M 4.52,-1.96 c 0.0,-1.104569499661587e-2 -8.954305003384129e-3,-2.0e-2 -1.9999999999999997e-2 -2.0e-2c -1.104569499661587e-2,-6.763537510981779e-19 -2.0e-2,8.954305003384127e-3 -2.0e-2 1.9999999999999993e-2c -1.3527075021963559e-18,1.104569499661587e-2 8.954305003384127e-3,2.0e-2 1.999999999999999e-2 2.0e-2c 1.104569499661587e-2,2.0290612532945338e-18 2.0e-2,-8.954305003384126e-3 2.0000000000000004e-2 -1.9999999999999993e-2Z" /></g><g fill="rgb(0,0,255)" fill-opacity="1.0" stroke-width="0.0"><path d="M 4.52,-1.96 c 0.0,-1.104569499661587e-2 -8.954305003384129e-3,-2.0e-2 -1.9999999999999997e-2 -2.0e-2c -1.104569499661587e-2,-6.763537510981779e-19 -2.0e-2,8.954305003384127e-3 -2.0e-2 1.9999999999999993e-2c -1.3527075021963559e-18,1.104569499661587e-2 8.954305003384127e-3,2.0e-2 1.999999999999999e-2 2.0e-2c 1.104569499661587e-2,2.0290612532945338e-18 2.0e-2,-8.954305003384126e-3 2.0000000000000004e-2 -1.9999999999999993e-2Z" /></g><g fill="rgb(0,0,255)" fill-opacity="1.0" stroke-width="0.0"><path d="M 5.52,-1.96 c 0.0,-1.104569499661587e-2 -8.954305003384129e-3,-2.0e-2 -1.9999999999999997e-2 -2.0e-2c -1.104569499661587e-2,-6.763537510981779e-19 -2.0e-2,8.954305003384127e-3 -2.0e-2 1.9999999999999993e-2c -1.3527075021963559e-18,1.104569499661587e-2 8.954305003384127e-3,2.0e-2 1.999999999999999e-2 2.0e-2c 1.104569499661587e-2,2.0290612532945338e-18 2.0e-2,-8.954305003384126e-3 2.0000000000000004e-2 -1.9999999999999993e-2Z" /></g><g fill="rgb(0,0,255)" fill-opacity="1.0" stroke-width="0.0"><path d="M 5.52,-1.96 c 0.0,-1.104569499661587e-2 -8.954305003384129e-3,-2.0e-2 -1.9999999999999997e-2 -2.0e-2c -1.104569499661587e-2,-6.763537510981779e-19 -2.0e-2,8.954305003384127e-3 -2.0e-2 1.9999999999999993e-2c -1.3527075021963559e-18,1.104569499661587e-2 8.954305003384127e-3,2.0e-2 1.999999999999999e-2 2.0e-2c 1.104569499661587e-2,2.0290612532945338e-18 2.0e-2,-8.954305003384126e-3 2.0000000000000004e-2 -1.9999999999999993e-2Z" /></g><g fill="rgb(0,0,255)" fill-opacity="1.0" stroke-width="0.0"><path d="M 5.52,-0.96 c 0.0,-1.104569499661587e-2 -8.954305003384129e-3,-2.0e-2 -1.9999999999999997e-2 -2.0e-2c -1.104569499661587e-2,-6.763537510981779e-19 -2.0e-2,8.954305003384127e-3 -2.0e-2 1.9999999999999993e-2c -1.3527075021963559e-18,1.104569499661587e-2 8.954305003384127e-3,2.0e-2 1.999999999999999e-2 2.0e-2c 1.104569499661587e-2,2.0290612532945338e-18 2.0e-2,-8.954305003384126e-3 2.0000000000000004e-2 -1.9999999999999993e-2Z" /></g><path d="M 5.5,-0.96 l -1.1102230246251565e-16,-1.0 h -1.0 l -1.1102230246251565e-16,1.0 h 1.0 Z" /></g><g fill-opacity="0.0" stroke-dasharray="0.1,0.1" stroke-dashoffset="0.0"><path d="M 4.5,-2.5 h -4.5 " /></g><g fill-opacity="0.0" stroke-dasharray="0.1,0.1" stroke-dashoffset="0.0"><path d="M 4.5,-3.5 h -4.5 " /></g><g fill-opacity="0.0" stroke-dasharray="0.1,0.1" stroke-dashoffset="0.0"><path d="M 5.5,-3.5 h -5.5 " /></g><g fill-opacity="0.0" stroke-dasharray="0.1,0.1" stroke-dashoffset="0.0"><path d="M 5.5,-2.5 h -5.5 " /></g><g><g><g stroke="rgb(128,128,128)" stroke-opacity="1.0" fill-opacity="0.0"><path d="M 4.5,-2.5 c -1.3764895998493487,-0.5957265725727692 -2.933253228853702,-0.6202453712331539 -4.32782065833916 -6.816254014614868e-2" /></g><g stroke-width="0.0"><g fill="rgb(128,128,128)" fill-opacity="1.0"><path d="" /></g><g fill="rgb(0,0,0)" fill-opacity="1.0"><path d="" /></g></g><g stroke-width="0.0"><g fill="rgb(128,128,128)" fill-opacity="1.0"><path d="M 7.494005416219807e-16,-2.5000000000000004 l 0.2198478735762765,-0.18185894872362524 l -5.248541680460098e-2,0.11560332206936261 l 0.11739221718588716,4.835198439368309e-2 l -0.2847546739575627,1.790364226057954e-2 Z" /></g><g fill="rgb(128,128,128)" fill-opacity="1.0"><path d="M 0.16736245677167627,-2.566255626654263 l 2.9764508154351745e-3,-6.555870624432291e-3 l 3.6808681474590293e-3,9.297914265093066e-3 l -6.657318962894204e-3,-2.7420436406607753e-3 v -4.336808689942018e-19 Z" /></g></g></g></g><g><g><g stroke="rgb(128,128,128)" stroke-opacity="1.0" fill-opacity="0.0"><path d="M 4.5,-3.5 c -1.3764895998493487,-0.5957265725727692 -2.933253228853702,-0.6202453712331539 -4.32782065833916 -6.816254014614868e-2" /></g><g stroke-width="0.0"><g fill="rgb(128,128,128)" fill-opacity="1.0"><path d="" /></g><g fill="rgb(0,0,0)" fill-opacity="1.0"><path d="" /></g></g><g stroke-width="0.0"><g fill="rgb(128,128,128)" fill-opacity="1.0"><path d="M 7.494005416219807e-16,-3.5000000000000004 l 0.2198478735762765,-0.18185894872362524 l -5.248541680460098e-2,0.11560332206936261 l 0.11739221718588716,4.835198439368309e-2 l -0.2847546739575627,1.790364226057954e-2 Z" /></g><g fill="rgb(128,128,128)" fill-opacity="1.0"><path d="M 0.16736245677167627,-3.566255626654263 l 2.9764508154351745e-3,-6.555870624432291e-3 l 3.6808681474590293e-3,9.297914265093066e-3 l -6.657318962894204e-3,-2.7420436406607753e-3 v -4.336808689942018e-19 Z" /></g></g></g></g><g><g><g stroke="rgb(128,128,128)" stroke-opacity="1.0" fill-opacity="0.0"><path d="M 5.5,-3.5 c -1.6966315925781341,-0.7285185501409431 -3.6131764394623676,-0.7532146012560761 -5.328016550774552 -6.865530399360033e-2" /></g><g stroke-width="0.0"><g fill="rgb(128,128,128)" fill-opacity="1.0"><path d="" /></g><g fill="rgb(0,0,0)" fill-opacity="1.0"><path d="" /></g></g><g stroke-width="0.0"><g fill="rgb(128,128,128)" fill-opacity="1.0"><path d="M -6.106226635438361e-16,-3.5000000000000044 l 0.21932621090806534,-0.1824877474122124 l -5.21541662899841e-2,0.11575314245938276 l 0.11753019397138001,4.801562824409638e-2 l -0.28470223858946125,1.8718976708733272e-2 Z" /></g><g fill="rgb(128,128,128)" fill-opacity="1.0"><path d="M 0.16717204461808066,-3.566734604952834 l 2.957665580900116e-3,-6.564366946824175e-3 l 3.7074780529349747e-3,9.28733581211561e-3 l -6.66514363383509e-3,-2.722968865291435e-3 h -0.0 Z" /></g></g></g></g><g><g><g stroke="rgb(128,128,128)" stroke-opacity="1.0" fill-opacity="0.0"><path d="M 5.5,-2.5 c -1.6966315925781341,-0.7285185501409431 -3.6131764394623676,-0.7532146012560761 -5.328016550774552 -6.865530399360033e-2" /></g><g stroke-width="0.0"><g fill="rgb(128,128,128)" fill-opacity="1.0"><path d="" /></g><g fill="rgb(0,0,0)" fill-opacity="1.0"><path d="" /></g></g><g stroke-width="0.0"><g fill="rgb(128,128,128)" fill-opacity="1.0"><path d="M -6.106226635438361e-16,-2.5000000000000044 l 0.21932621090806534,-0.1824877474122124 l -5.21541662899841e-2,0.11575314245938276 l 0.11753019397138001,4.801562824409638e-2 l -0.28470223858946125,1.8718976708733272e-2 Z" /></g><g fill="rgb(128,128,128)" fill-opacity="1.0"><path d="M 0.16717204461808066,-2.566734604952834 l 2.957665580900116e-3,-6.564366946824175e-3 l 3.7074780529349747e-3,9.28733581211561e-3 l -6.66514363383509e-3,-2.722968865291435e-3 h -0.0 Z" /></g></g></g></g><g fill="rgb(0,128,0)" fill-opacity="1.0" stroke-width="0.0"><path d="M 2.0e-2,-2.5 c 0.0,-1.104569499661587e-2 -8.954305003384129e-3,-2.0e-2 -1.9999999999999997e-2 -2.0e-2c -1.104569499661587e-2,-6.763537510981779e-19 -2.0e-2,8.954305003384127e-3 -2.0e-2 1.9999999999999993e-2c -1.3527075021963559e-18,1.104569499661587e-2 8.954305003384127e-3,2.0e-2 1.999999999999999e-2 2.0e-2c 1.104569499661587e-2,2.0290612532945338e-18 2.0e-2,-8.954305003384126e-3 2.0000000000000004e-2 -1.9999999999999993e-2Z" /></g><g fill="rgb(0,128,0)" fill-opacity="1.0" stroke-width="0.0"><path d="M 2.0e-2,-3.5 c 0.0,-1.104569499661587e-2 -8.954305003384129e-3,-2.0e-2 -1.9999999999999997e-2 -2.0e-2c -1.104569499661587e-2,-6.763537510981779e-19 -2.0e-2,8.954305003384127e-3 -2.0e-2 1.9999999999999993e-2c -1.3527075021963559e-18,1.104569499661587e-2 8.954305003384127e-3,2.0e-2 1.999999999999999e-2 2.0e-2c 1.104569499661587e-2,2.0290612532945338e-18 2.0e-2,-8.954305003384126e-3 2.0000000000000004e-2 -1.9999999999999993e-2Z" /></g><g fill="rgb(0,128,0)" fill-opacity="1.0" stroke-width="0.0"><path d="M 2.0e-2,-3.5 c 0.0,-1.104569499661587e-2 -8.954305003384129e-3,-2.0e-2 -1.9999999999999997e-2 -2.0e-2c -1.104569499661587e-2,-6.763537510981779e-19 -2.0e-2,8.954305003384127e-3 -2.0e-2 1.9999999999999993e-2c -1.3527075021963559e-18,1.104569499661587e-2 8.954305003384127e-3,2.0e-2 1.999999999999999e-2 2.0e-2c 1.104569499661587e-2,2.0290612532945338e-18 2.0e-2,-8.954305003384126e-3 2.0000000000000004e-2 -1.9999999999999993e-2Z" /></g><g fill="rgb(0,128,0)" fill-opacity="1.0" stroke-width="0.0"><path d="M 2.0e-2,-2.5 c 0.0,-1.104569499661587e-2 -8.954305003384129e-3,-2.0e-2 -1.9999999999999997e-2 -2.0e-2c -1.104569499661587e-2,-6.763537510981779e-19 -2.0e-2,8.954305003384127e-3 -2.0e-2 1.9999999999999993e-2c -1.3527075021963559e-18,1.104569499661587e-2 8.954305003384127e-3,2.0e-2 1.999999999999999e-2 2.0e-2c 1.104569499661587e-2,2.0290612532945338e-18 2.0e-2,-8.954305003384126e-3 2.0000000000000004e-2 -1.9999999999999993e-2Z" /></g><g fill="rgb(0,0,255)" fill-opacity="1.0" stroke-width="0.0"><path d="M 5.52,-2.5 c 0.0,-1.104569499661587e-2 -8.954305003384129e-3,-2.0e-2 -1.9999999999999997e-2 -2.0e-2c -1.104569499661587e-2,-6.763537510981779e-19 -2.0e-2,8.954305003384127e-3 -2.0e-2 1.9999999999999993e-2c -1.3527075021963559e-18,1.104569499661587e-2 8.954305003384127e-3,2.0e-2 1.999999999999999e-2 2.0e-2c 1.104569499661587e-2,2.0290612532945338e-18 2.0e-2,-8.954305003384126e-3 2.0000000000000004e-2 -1.9999999999999993e-2Z" /></g><g fill="rgb(0,0,255)" fill-opacity="1.0" stroke-width="0.0"><path d="M 4.52,-2.5 c 0.0,-1.104569499661587e-2 -8.954305003384129e-3,-2.0e-2 -1.9999999999999997e-2 -2.0e-2c -1.104569499661587e-2,-6.763537510981779e-19 -2.0e-2,8.954305003384127e-3 -2.0e-2 1.9999999999999993e-2c -1.3527075021963559e-18,1.104569499661587e-2 8.954305003384127e-3,2.0e-2 1.999999999999999e-2 2.0e-2c 1.104569499661587e-2,2.0290612532945338e-18 2.0e-2,-8.954305003384126e-3 2.0000000000000004e-2 -1.9999999999999993e-2Z" /></g><g fill="rgb(0,0,255)" fill-opacity="1.0" stroke-width="0.0"><path d="M 4.52,-2.5 c 0.0,-1.104569499661587e-2 -8.954305003384129e-3,-2.0e-2 -1.9999999999999997e-2 -2.0e-2c -1.104569499661587e-2,-6.763537510981779e-19 -2.0e-2,8.954305003384127e-3 -2.0e-2 1.9999999999999993e-2c -1.3527075021963559e-18,1.104569499661587e-2 8.954305003384127e-3,2.0e-2 1.999999999999999e-2 2.0e-2c 1.104569499661587e-2,2.0290612532945338e-18 2.0e-2,-8.954305003384126e-3 2.0000000000000004e-2 -1.9999999999999993e-2Z" /></g><g fill="rgb(0,0,255)" fill-opacity="1.0" stroke-width="0.0"><path d="M 4.52,-3.5 c 0.0,-1.104569499661587e-2 -8.954305003384129e-3,-2.0e-2 -1.9999999999999997e-2 -2.0e-2c -1.104569499661587e-2,-6.763537510981779e-19 -2.0e-2,8.954305003384127e-3 -2.0e-2 1.9999999999999993e-2c -1.3527075021963559e-18,1.104569499661587e-2 8.954305003384127e-3,2.0e-2 1.999999999999999e-2 2.0e-2c 1.104569499661587e-2,2.0290612532945338e-18 2.0e-2,-8.954305003384126e-3 2.0000000000000004e-2 -1.9999999999999993e-2Z" /></g><g fill="rgb(0,0,255)" fill-opacity="1.0" stroke-width="0.0"><path d="M 4.52,-3.5 c 0.0,-1.104569499661587e-2 -8.954305003384129e-3,-2.0e-2 -1.9999999999999997e-2 -2.0e-2c -1.104569499661587e-2,-6.763537510981779e-19 -2.0e-2,8.954305003384127e-3 -2.0e-2 1.9999999999999993e-2c -1.3527075021963559e-18,1.104569499661587e-2 8.954305003384127e-3,2.0e-2 1.999999999999999e-2 2.0e-2c 1.104569499661587e-2,2.0290612532945338e-18 2.0e-2,-8.954305003384126e-3 2.0000000000000004e-2 -1.9999999999999993e-2Z" /></g><g fill="rgb(0,0,255)" fill-opacity="1.0" stroke-width="0.0"><path d="M 5.52,-3.5 c 0.0,-1.104569499661587e-2 -8.954305003384129e-3,-2.0e-2 -1.9999999999999997e-2 -2.0e-2c -1.104569499661587e-2,-6.763537510981779e-19 -2.0e-2,8.954305003384127e-3 -2.0e-2 1.9999999999999993e-2c -1.3527075021963559e-18,1.104569499661587e-2 8.954305003384127e-3,2.0e-2 1.999999999999999e-2 2.0e-2c 1.104569499661587e-2,2.0290612532945338e-18 2.0e-2,-8.954305003384126e-3 2.0000000000000004e-2 -1.9999999999999993e-2Z" /></g><g fill="rgb(0,0,255)" fill-opacity="1.0" stroke-width="0.0"><path d="M 5.52,-3.5 c 0.0,-1.104569499661587e-2 -8.954305003384129e-3,-2.0e-2 -1.9999999999999997e-2 -2.0e-2c -1.104569499661587e-2,-6.763537510981779e-19 -2.0e-2,8.954305003384127e-3 -2.0e-2 1.9999999999999993e-2c -1.3527075021963559e-18,1.104569499661587e-2 8.954305003384127e-3,2.0e-2 1.999999999999999e-2 2.0e-2c 1.104569499661587e-2,2.0290612532945338e-18 2.0e-2,-8.954305003384126e-3 2.0000000000000004e-2 -1.9999999999999993e-2Z" /></g><g fill="rgb(0,0,255)" fill-opacity="1.0" stroke-width="0.0"><path d="M 5.52,-2.5 c 0.0,-1.104569499661587e-2 -8.954305003384129e-3,-2.0e-2 -1.9999999999999997e-2 -2.0e-2c -1.104569499661587e-2,-6.763537510981779e-19 -2.0e-2,8.954305003384127e-3 -2.0e-2 1.9999999999999993e-2c -1.3527075021963559e-18,1.104569499661587e-2 8.954305003384127e-3,2.0e-2 1.999999999999999e-2 2.0e-2c 1.104569499661587e-2,2.0290612532945338e-18 2.0e-2,-8.954305003384126e-3 2.0000000000000004e-2 -1.9999999999999993e-2Z" /></g><path d="M 5.5,-2.5 l -1.1102230246251565e-16,-1.0 h -1.0 l -1.1102230246251565e-16,1.0 h 1.0 Z" /></g></g></g></svg>